<?xml version="1.0" encoding="UTF-8"?>
<!DOCTYPE svg PUBLIC "-//W3C//DTD SVG 1.0//EN" "http://www.w3.org/TR/2001/REC-SVG-20010904/DTD/svg10.dtd">

<?xml-stylesheet href="../../../image-map.css" type="text/css"?>
<?xml-stylesheet href="../style/style.css" type="text/css"?>

<svg xmlns="http://www.w3.org/2000/svg" xmlns:xlink="http://www.w3.org/1999/xlink" version="1.1">

    <defs>
        <filter id="blur-filter">
            <feGaussianBlur in="SourceGraphic" stdDeviation="2"/>
        </filter>
        <symbol id="info-point" viewBox="0 0 100 100" data-scale="0.5">
            <circle id="contour" cx="50" cy="50" r="40" fill="none" stroke="#ffb100" stroke-width="5px"/>
            <path d="M50,75l0,-29" fill="none" stroke="#ffb100" stroke-width="8px"/>
            <circle cx="50" cy="28" r="5" fill="#ffb100"/>
        </symbol>
    </defs>

    <image id="background" width="1024px" height="683px" x="0" y="0" xlink:href="map.jpg"/>

<!--
    <g id="regions">
        <path id="camping" d="M391.41,192.14l0.006,-2.261l-2.643,-1.834l1.102,-1.835l-2.129,-1.027l-0.66,-1.762l-1.029,-1.174l0.441,-2.055l3.009,-0.146l0,-1.836l-2.495,-0.66l-2.569,0.22l-0.734,-2.642l3.303,-2.128l3.082,-1.982l-0.953,-1.027l4.696,-0.662l2.202,-0.953l2.642,-2.054l-1.393,-0.295l2.934,-2.276l-0.806,-2.055l0.954,-1.32l2.789,-0.221l0.587,-1.834l-1.322,-0.734l0.88,-2.864l-0.953,-2.128l3.451,-0.806l2.641,1.761l2.348,-1.175l0.514,-1.908l0.882,-1.027l3.596,1.541l1.1,-1.761l1.175,1.468l2.055,2.275l3.044,0.127l3.805,-0.671l1.788,0.671l0.895,-3.133l3.244,-1.566l-2.013,-1.565l-0.113,-1.791l4.476,-0.559l-2.014,-4.138l-1.677,-0.225l4.138,-1.789l0.224,-2.685l2.573,-2.573l-0.671,-2.573l6.348,0.185l5.473,-3.789l2.947,1.262l4.421,2.947l5.262,3.79l1.474,-2.526l-3.717,-1.878l-1.789,-2.573l-0.336,-1.678l3.691,-1.791l1.79,-2.124l3.692,4.585l0.783,2.126l3.802,-1.342l1.566,-2.35l-0.67,-4.585l2.685,0.67l3.244,1.566l0.671,2.238l2.125,-0.448l0.447,-2.126l3.133,-0.895l0.56,1.791l1.566,1.678l0.447,-2.796l3.133,-1.455l0.894,1.455l-0.672,1.566l3.357,-1.119l-1.231,-2.238l0.112,-1.789l-1.566,-1.119l0.559,-2.237l3.133,0.447l-2.561,-3.114l0.14,-3.315l-4.835,-0.277l-0.966,-1.795l1.242,-2.625l3.868,-3.175l0.275,4.281l2.901,-0.276l1.381,-4.005l-1.243,-3.177l-2.071,-1.104l1.103,-3.038l3.039,3.314l2.071,4.005l3.592,2.072l0.138,-3.73l-0.552,-3.314l-1.934,-1.796l0.968,-1.242l-5.25,-1.52l-3.314,-5.247l6.905,1.657l2.625,2.623l4.142,4.145l0.829,-2.762l-2.209,-3.592l2.485,-0.414l2.21,2.486l1.934,-0.138l3.591,1.933l0.137,-2.348l-1.518,-3.177l-2.625,-0.55l-1.104,-1.935l-3.315,-0.69l-4.143,0.414l-3.315,-0.691l-1.105,1.244l-3.729,-2.072l-2.348,1.657l-1.657,-0.692l-2.208,-2.345l3.865,-0.968l0.415,-2.21l4.005,0.415l2.901,-1.519l2.486,0.414l-0.277,2.071l-2.209,1.105l2.346,1.242l3.315,-2.07l3.177,-0.553l0.966,-2.486l-4.003,-1.105l5.523,-1.105l-1.52,-4.005l-2.348,-1.518l-3.175,-0.69l-0.829,-1.52l-3.452,0.69l-1.796,-1.795l-2.072,0.138l-1.518,-1.658l-3.039,2.21l-1.381,1.795l-4.834,-2.485l-0.138,2.072l-0.691,1.105l-2.077,-1.3l1.27,-4.349l-2.267,-1.63l-0.634,-1.995l1.785,-3.011l4.143,-0.137l-1.242,-2.348l1.795,-2.349l2.899,-0.69l-1.38,-1.381l-2.21,-0.691l-2.9,-4.696l-2.21,2.487l-1.794,-2.348l-1.52,-0.553l1.934,-3.175l3.866,0.274l2.762,-1.104l1.795,0.414l3.315,-1.104l0.691,-4.281l-2.901,-1.934l3.867,-1.795l-9.252,-1.382l-1.105,1.382l-1.658,-4.143l-2.624,-0.277l0.83,-2.347l1.38,-1.935l-2.21,-4.142l0.414,-2.071l-3.314,-1.382l-2.348,-0.137l-1.933,-0.83l0,-4.143l2.348,-3.866l-2.485,-1.795l3.112,-4.422l472.534,0l-1.795,3.316l-1.933,3.452l0.69,3.315l-3.038,0.828l-3.314,1.796l0,1.796l0.138,1.656l-4.006,0.139l-0.551,3.452l-1.52,3.315l-2.486,-0.415l-1.104,3.592l0,2.623l-1.658,3.59l2.348,1.244l2.762,-3.315l1.795,1.934l-1.381,3.039l-2.624,2.762l0.553,2.623l2.347,-1.518l3.867,1.656l-1.795,1.519l-2.762,1.796l-2.21,0.276l-0.138,2.901l2.762,1.242l0.138,2.624l2.487,1.519l0.69,0.967l3.729,-1.933l1.796,-3.452l1.518,1.38l0.69,2.9l0.139,2.762l2.071,2.21l-3.728,0.277l-2.072,2.623l-2.348,0.277l-0.69,-2.21l-1.795,3.313l-2.901,-1.932l-2.763,0l0.14,1.932l0.413,2.072l-2.422,-2.062l-1.902,3.468l-1.454,-1.789l-1.901,-0.896l0.111,3.021l-0.894,1.455l-1.455,-1.007l-0.782,1.789l-0.896,1.455l-2.014,0l-1.006,-3.132l-2.574,-1.343l0.225,3.468l1.901,2.91l-0.894,1.9l-1.232,-2.461l-1.677,1.791l-1.79,0l-1.006,-2.126l-2.349,2.012l0.782,3.469l0,2.908l-2.908,1.455l0.56,1.454l-1.455,1.119l2.572,1.007l4.588,1.566l2.237,1.566l4.474,-2.126l2.685,-0.224l0.671,-2.126l2.909,2.685l0.234,2.276l1.753,0.247l-0.192,1.366l-54.423,4.837l0,-1.106l-1.061,-2.953l-0.831,-0.23l-0.138,-4.384l-2.261,0l-0.092,-1.569l-2.077,0.046l-0.138,2.399l-1.245,0.093l0.138,7.521l-1.108,0.183l-0.449,2.105l-6.949,0.342l-0.228,3.93l-32.238,3.873l0,-1.024l-0.456,-1.311l-0.854,0.058l0.171,-1.481l-1.71,-1.367l-1.481,-0.17l-1.479,0.226l-0.628,1.196l-0.113,3.532l-1.596,0.341l-0.626,0.741l-67.344,7.25l-0.036,-1.07l-1.537,-2.165l-0.798,0.056l-0.911,1.311l-0.398,-1.311l-1.539,0l-0.968,1.767l-0.456,-1.71l-1.082,0.115l0.057,1.481l-1.537,0l-0.457,3.702l-48.094,4.908l-0.539,-6.018l-1.431,-0.322l-0.553,2.629l-0.277,-5.074l-1.245,-1.063l-0.463,4.302l-0.089,-2.605l-0.78,-0.955l-0.782,0.694l-0.694,3.561l-1.823,0.521l0.347,5.989l-0.869,0l-2.083,-3.299l-55.301,7.119l-0.086,-2.345l-2.083,-0.26l-0.174,2.605l-0.868,0l-0.347,-3.039l-1.737,-0.173l0,3.906l-1.736,0.174l-0.434,0.694l-10.244,1.043l-0.175,5.729l0.783,1.65l-0.065,11.448l-1.72,0.299l-0.496,0.953l0.093,2.814l0.969,1.8l-1.462,20.516l-0.541,-1.054l-1.594,-1.651l-2.449,-0.683l-2.678,0l-2.335,0.398l-2.108,1.709l-0.627,-0.057l-0.455,7.517l-34.211,2.112l0.046,-8.627l-0.923,-0.645l0,-6.414l-0.785,-1.199l-1.06,-0.231l-0.23,-11.996l-0.415,-0.691l-0.831,-0.232l-0.74,-0.691l-0.552,0.6l0,8.489l-1.016,-0.092l-0.137,4.151l-0.969,0.046l-0.186,4.244l-0.875,0.186l0.091,15.317l-15.456,1.523l-2.722,-6.043l-3.736,-1.155l-3.23,-0.323l-2.906,1.292l-2.031,1.845l-0.276,1.661l0.415,4.384l-13.334,1.015l-0.552,-0.877l-0.186,-5.813l0.508,-0.553l-0.139,-1.062l-0.691,-7.012l-1.432,-0.046l-0.137,-1.939l-1.523,-1.523l-0.138,-2.167l-0.601,-0.508l-0.968,0.323l0.091,1.799l-0.876,0.092l-0.091,2.906l-0.877,0.14l0,-1.708l-0.83,0.323l-0.093,2.308l-1.983,1.06l-0.14,14.81l-19.008,-7.567l-19.561,12.042l-0.462,1.292l-18.598,1.622l-1.061,-4.891l-1.43,-1.523l-2.399,-0.599l-2.722,0.092l-1.984,0.46l-1.66,1.8l-1.016,0.093l-0.277,6.644l-21.869,2.306l-0.231,-4.106l-2.214,-2.538l-2.676,-0.692l-3.045,-0.046Z"/>
        <path id="ptchateau" d="M425.797,270.631l-10.829,1.125l-0.282,1.266l-6.609,0.562l-0.732,-0.683l-11.356,1.528l-0.071,1.336l-1.757,0.984l-1.828,-0.491l-0.773,-1.056l-13.924,1.618l-0.704,1.336l-2.11,0.281l-1.547,-0.212l-0.562,-1.054l-13.43,1.618l-1.462,0.245l1.652,2.62l0.968,2.449l0.113,2.05l-2.107,-0.968l-3.246,0l-0.4,1.879l-1.935,0.57l-1.196,0.626l-0.513,1.911l-4.899,0l-2.886,-5.792l-39.378,5.043l-0.563,-36.332l-0.703,-0.281l-2.602,-21.237l-0.914,-0.07l-0.703,-7.313l1.337,-0.281l-0.582,-9.413l1.618,-1.547l12.164,-1.055l-0.49,-7.032l0.61,-0.882l0.897,0l2.69,-1.42l3.102,-0.747l2.99,0.187l2.578,1.121l0.86,1.047l0.224,2.988l0.747,0.224l0.523,-1.158l0.711,1.906l1.569,-0.299l0.225,-16.106l-1.122,-4.522l-0.074,-2.578l5.306,-0.374l0.561,3.4l0,1.046l0.747,0.076l0.15,3.139l1.793,0.299l0.076,3.886l0.821,0.374l0.15,1.121l-0.523,1.046l0.373,6.988l4.858,0.112l-0.112,-6.426l1.57,-0.225l1.158,-1.159l2.167,-0.823l2.505,-0.41l2.69,0.187l1.981,0.71l1.533,1.307l1.083,2.168l0.523,3.588l6.877,-0.225l0.036,-10.127l-0.074,-5.082l1.159,-0.149l0.186,-2.916l2.168,0.225l-0.038,1.794l1.285,0.006l0.015,-4.135l2.365,-0.081l0.097,4.392l0.917,-0.064l0.047,-3.54l1.593,0.146l0.032,3.442l1.11,0l0.402,4.794l0.25,9.251l8.951,-1.154l-0.416,-6.089l0.785,-0.14l2.076,-1.429l3.091,-1.431l3.045,0.046l2.676,0.692l2.214,2.538l0.231,4.106l21.869,-2.306l0.277,-6.644l1.016,-0.093l1.66,-1.799l1.984,-0.461l2.722,-0.092l2.399,0.599l1.43,1.523l1.061,4.891l18.598,-1.622l0.462,-1.292l19.561,-12.042l19.008,7.567l0.14,-14.81l1.983,-1.06l0.093,-2.308l0.83,-0.323l0,1.708l0.877,-0.14l0.092,-2.906l0.875,-0.092l-0.091,-1.799l0.968,-0.323l0.601,0.508l0.138,2.167l1.523,1.523l0.137,1.939l1.432,0.046l0.691,7.012l0.139,1.062l-0.508,0.553l0.186,5.813l0.552,0.877l13.334,-1.015l-0.415,-4.384l0.276,-1.66l2.031,-1.846l2.906,-1.292l3.23,0.323l3.736,1.155l2.722,6.043l15.456,-1.522l-0.091,-15.318l0.876,-0.185l0.185,-4.245l0.969,-0.046l0.137,-4.151l1.016,0.092l0,-8.489l0.552,-0.6l0.74,0.691l0.831,0.232l0.415,0.691l0.23,11.996l1.06,0.231l0.786,1.199l0,6.414l0.922,0.645l-0.046,8.627l34.211,-2.112l0.455,-7.517l0.628,0.057l2.107,-1.709l2.335,-0.398l2.678,0l2.449,0.683l1.594,1.651l1.083,2.108l0.741,2.734l9.569,-0.854l6.291,38.369l-0.751,1.887l-0.185,0.876l-0.093,12.18l-1.429,0.278l-0.276,0.968l-1.063,-0.046l-1.614,-1.43l-1.015,0.876l0.875,1.523l-1.522,0.414l-1.06,0.971l-2.445,0.691l-0.139,0.923l-2.63,-0.416l-0.092,1.247l-1.153,-0.14l-0.231,1.385l0.784,1.891l0.046,1.2l-2.906,0l0,1.061l1.015,0.969l-1.938,1.384l-1.568,-1.8l-0.554,1.568l1.569,1.57l-0.369,2.122l-2.088,0.649l-1.97,0.632l-0.421,2.321l-2.04,0.914l-2.672,0.21l-2.038,-2.53l-11.604,1.898l-0.985,1.477l-0.913,1.898l-1.478,-0.14l-1.758,-0.633l-1.476,-1.758l-10.407,1.969l-0.281,1.548l-0.634,1.335l-2.672,0.14l-2.25,-0.914l-1.828,-0.843l-9.212,1.265l0.071,1.477l-1.267,0.985l-2.249,-0.07l-2.884,-1.547l-10.477,1.405l0.21,1.477l-1.898,0.493l-1.405,1.054l-2.182,0l-1.335,-1.969l-10.618,1.196l-0.188,1.943l-5.81,0.228l-0.228,0.513l-1.481,0.114l-0.626,1.538l-1.595,0.57l-3.076,-0.228l-0.683,-2.108l-20.824,2.535l-0.858,0.601l-0.448,0.934l0.074,0.897l-0.748,0.111l-0.261,1.046l-2.092,0.113l-0.86,-1.757l-9.455,0.561l-0.448,-1.009l-11.571,1.26l-0.423,1.194l-1.478,0.492l-2.179,-1.124l-12.165,1.054l-0.493,1.547l-1.124,1.547l-2.814,0l-1.124,-1.828Z"/>
        <path id="cour_ptchateau" d="M512.018,447.134l-0.184,-2.539l1.058,-1.153l1.442,-4.903l-0.096,-5.095l-1.298,-4.663l-2.5,-4.518l-3.124,-4.182l-3.461,-3.509l-3.99,-2.836l-4.47,-2.355l-0.096,-8.605l-1.298,-1.826l-2.211,-2.115l-1.73,-0.769l-4.375,0.192l-1.442,0.865l-0.865,1.49l-13.321,-12.681l-0.144,-3.845l0.769,-1.25l-0.817,-0.817l-0.241,-11.152l0.433,-1.442l-1.49,-1.153l-1.058,1.153l0.481,1.25l0.144,11.536l-0.769,0.721l0.721,1.106l-0.336,3.845l-26.678,22.881l-6.008,3.941l-7.259,6.682l-5.431,8.652l-0.817,8.123l0.528,5.768l-33.404,-115.962l2.714,-0.09l2.261,-1.085l1.537,-1.809l0.181,-3.347l-0.904,-2.985l-1.266,-5.698l73.353,-8.593l2.894,0.091l1.99,1.085l1.628,1.719l1.538,3.165l1.99,2.352l3.075,1.447l3.979,0.272l38.893,-3.709l1.628,-2.894l3.256,-4.251l3.166,-3.437l4.341,-3.528l5.608,-1.899l62.778,-6.123l1.99,0.543l0.904,1.538l0.633,1.537l-1.266,1.266l-1.809,1.81l0.272,2.17l0.995,1.086l1.628,-0.724l1.537,0.181l-0.995,2.442l-0.09,2.352l0.452,1.718l-1.537,1.899l0.904,2.262l-2.261,1.628l1.266,1.356l1.628,2.895l1.628,0.814l-0.181,2.261l1.809,0.814l1.447,0.995l3.89,-0.543l0,3.437l-0.814,2.985l-0.091,1.538l1.719,0.452l-0.995,1.718l2.985,0.995l-0.181,2.171l1.899,0.633l0.271,1.447l1.99,0.634l1.9,0l0.814,2.17l-0.362,2.804l2.804,3.256l-2.261,1.809l-0.724,1.267l-0.09,1.808l1.447,1.99l-0.814,0.995l3.618,0.724l0.18,1.266l1.267,-0.633l0.723,1.538l0.362,1.899l-0.271,2.442l1.899,0.724l-0.904,1.628l0.271,2.985l-0.09,1.809l1.809,0.452l-0.181,1.447l-1.719,-0.543l0.272,2.081l2.532,0.633l3.256,0.361l-1.537,1.809l-1.9,0.181l0.814,2.533l2.352,0.362l-0.452,1.266l-1.538,0.814l1.809,1.899l2.894,0.362l0.272,0.452l0.361,1.538l1.448,1.357l-1.357,1.537l0.995,1.9l1.176,0.633l1.301,0.949l0.178,1.72l0.891,-0.178l0.296,0.831l-0.059,1.424l1.246,0.772l-0.178,1.305l1.365,0.475l0.475,-1.127l1.305,-0.238l0.831,2.255l1.84,0.89l-0.238,2.493l2.077,0.831l0.712,0.89l0.594,-1.484l-0.831,-1.483l1.602,-1.247l3.063,1.122l2.637,0.513l0.806,2.271l1.026,0.074l1.099,1.245l2.417,-1.099l1.759,-1.099l0.366,1.465l2.564,-0.219l-0.952,1.904l0.659,1.978l2.564,-0.439l0.293,-1.026l1.905,-0.806l0.22,-1.172l1.612,1.099l0.586,-1.758l1.978,2.051l1.712,-1.691l0.953,0.879l2.344,-0.22l1.172,1.246l3.59,-0.733l0.22,-1.099l1.099,0.367l0.733,2.71l2.417,-0.879l0.44,2.125l0.073,1.318l-1.099,1.099l3.297,-0.219l-0.439,1.465l1.465,-0.147l-0.22,1.246l0.806,0.732l2.564,-0.586l-1.026,1.759l0,1.245l1.612,0.952l-0.22,1.026l1.612,0.513l-0.366,0.733l-1.539,0.806l-0.49,1.511l-41.955,5.803l-3.086,-7.277l-6.309,-0.046l-5.25,2.533l-0.276,7.001l-48.771,6.723l-2.165,-6.954l-6.033,-0.23l-5.619,2.349l0.139,7.921l-7.599,1.197l-21.001,-6.355l-20.217,12.849l-2.856,0.23l-1.888,-7.046l-5.895,-0.599l-6.211,1.878l0.913,8.353l-6.645,0.947Z"/>
        <path id="grchateau" d="M617.251,228.739l0.093,-12.18l0.185,-0.876l0.751,-1.887l-6.291,-38.369l-9.569,0.854l-0.741,-2.734l-0.542,-1.054l1.462,-20.516l-0.969,-1.8l-0.093,-2.814l0.496,-0.952l1.72,-0.299l0.065,-11.449l-0.783,-1.65l0.175,-5.729l10.244,-1.043l0.434,-0.694l1.736,-0.173l0,-3.907l1.737,0.173l0.347,3.039l0.868,0l0.174,-2.605l2.083,0.261l0.086,2.344l55.301,-7.119l2.083,3.299l0.869,0l-0.347,-5.989l1.823,-0.521l0.694,-3.56l0.782,-0.695l0.781,0.955l0.088,2.605l0.463,-4.302l1.246,1.063l0.276,5.074l0.554,-2.629l1.43,0.322l0.539,6.019l48.094,-4.909l0.457,-3.702l1.537,0l-0.057,-1.481l1.082,-0.115l0.456,1.71l0.968,-1.767l1.539,0l0.398,1.311l0.911,-1.311l0.798,-0.056l1.537,2.165l0.036,1.07l67.344,-7.25l0.627,-0.74l1.595,-0.342l0.113,-3.532l0.628,-1.196l1.479,-0.226l1.481,0.17l1.71,1.367l-0.171,1.481l0.854,-0.058l0.456,1.311l0,1.025l32.238,-3.874l0.228,-3.93l6.949,-0.342l0.449,-2.105l1.108,-0.183l-0.138,-7.521l1.245,-0.093l0.138,-2.399l2.077,-0.046l0.092,1.571l2.261,0l0.138,4.382l0.831,0.23l1.061,2.953l0,1.106l54.423,-4.837l0.416,-2.953l1.614,0l0.645,0.97l0.232,-2.076l4.936,-0.232l4.198,6.136l-0.137,1.477l-0.647,0.139l-0.322,11.072l15.837,28.002l2.249,0.282l-0.21,3.023l-0.844,1.265l-1.969,0.422l-0.703,9.494l2.672,3.727l-0.141,1.686l-2.672,2.533l-0.125,1.482l-1.338,0.183l-2.445,28.189l-1.616,0.324l-0.183,2.814l-1.754,-0.045l-1.568,-2.262l-1.431,0.046l-0.462,1.061l-2.674,-2.03l-0.971,0.14l-0.921,1.245l-1.154,-0.093l-0.092,-0.83l-1.338,-0.046l-1.199,-1.247l-0.831,0l-0.877,1.2l-1.476,0l-0.092,1.016l-2.031,0.877l-1.199,0l-1.661,-0.692l-2.168,0l-0.553,-1.154l-0.601,0.092l-0.508,1.292l-3.136,0.645l-0.277,-2.029l-1.154,0.324l0,1.845l-1.522,-0.508l-3.045,-0.185l-4.245,0.416l-0.23,2.26l-0.739,0l-1.153,-1.246l-0.599,-0.092l-0.462,1.015l-5.491,-0.138l-0.277,3.829l-0.923,0.37l-0.876,-0.508l-1.798,-0.231l-1.293,0.645l-0.829,0.509l-0.048,-1.43l-1.06,-0.046l-0.6,3.69l-1.938,0.139l-0.799,-1.181l-0.968,-0.186l-0.232,1.017l-1.661,0.507l-0.552,0.877l-1.431,0.276l-1.292,2.03l-0.876,0.231l0.091,1.706l0,1.292l-1.568,0.6l0,2.676l1.431,0.97l-0.093,0.968l-1.8,0.046l-0.553,2.123l1.708,1.06l1.752,0.37l-0.508,1.43l-2.353,0.046l-0.507,1.523l0.923,0.553l-1.522,0.645l0.092,1.293l1.445,0.721l-0.046,1.384l0.646,1.384l1.154,-0.046l-0.047,2.213l-0.969,1.063l-127.727,15.635l-3.645,-6.608l-3.247,0.399l-1.538,-1.823l-0.739,-2.505l0.171,-2.165l-1.595,-0.57l-1.141,1.082l-0.626,-2.506l-1.48,-0.113l-1.139,-3.247l-1.196,0.798l-0.854,-2.849l-1.254,2.051l-0.968,-2.962l-3.303,-0.228l-1.426,-1.708l-1.879,0l-0.797,-2.223l-1.708,0.228l-2.508,-0.513l-0.854,1.197l-1.48,0.457l-1.652,-0.172l-2.507,0l0.057,-2.278l-2.05,-0.057l-1.31,1.709l-0.911,-1.824l-1.082,0.342l-0.17,1.026l-1.711,-0.172l-1.024,-1.935l-2.164,1.537l-0.115,2.45l-0.968,-0.968l-3.532,0.512l-0.854,0.854l-1.025,-0.057l-0.285,-1.081l-1.709,-0.115l-0.797,0.968l-1.026,1.026l-2.049,0l-0.513,-1.31l-2.107,0.171l-0.285,1.936l-0.913,-1.253l-1.594,1.481l-1.709,-0.228l-0.113,-0.74l-2.05,-0.398l-0.913,-0.741l-1.709,0.512l-1.822,-0.512l-0.853,2.221l-1.083,-0.058l-1.026,-1.422l-0.741,0.226l-1.366,1.823l-0.741,-1.765l-1.081,0l-0.456,0.854l-1.767,0.171l-1.879,1.253l-1.594,-0.285l-0.627,1.309l-2.223,-0.283l-0.455,0.912l-1.252,0.342l-1.823,2.392l-1.196,-1.709l-1.196,0.569l-0.114,2.449l-1.216,-1.435l-0.398,1.823l-0.798,0.341l-0.627,-2.334l-1.708,0.285l-0.513,1.879l-1.31,0.911l-1.196,0.512l-1.537,0.684l-0.742,1.083l-0.627,-1.482l-2.961,0.742l0.285,1.822l-2.108,0l-0.569,-1.309l-1.596,0.113l-0.341,-2.165l-1.994,-0.057l-1.651,1.31l-1.084,-1.368l-1.309,2.337l-2.677,0.057l-0.455,1.708l-1.025,0.114l-2.905,0.399l-0.685,-1.48l-1.594,1.196l-1.765,-1.026l-0.628,1.139l-2.126,-1.001Z"/>
        <path id="cochets" d="M296.165,321.515l17.554,69.221l9.653,4.843l7.165,28.998l-17.357,-13.509l-4.435,-5.157l-1.175,-0.815l-0.635,1.086l-18.368,31.128l0.995,23.434l-73.747,13.082l-113.161,-44.423l-3.746,-4.767l-18.36,-107.013l0.914,-0.336l0.77,-0.866l1.009,-0.29l-0.672,-1.105l-0.782,-1.068l0.536,-0.383l1.304,-0.332l0.178,-2.147l0.29,-1.485l1.098,0.103l0.868,-1.125l-0.332,-2.377l2.198,-0.307l0.205,-1.711l0.767,-0.076l0.536,-1.458l-0.715,-1.711l-0.205,1.022l-0.997,0.561l-0.485,0.997l-0.614,-0.537l0.128,-1.763l0.87,-0.689l-1.228,-0.588l-0.382,-0.843l0.076,-0.64l-0.996,-0.664l-0.741,1.098l-0.743,-0.51l0.564,-0.817l0.97,-0.87l-1.022,-0.895l0.486,-1.277l-0.69,-0.87l1.508,-0.818l-0.461,-0.664l-1.865,0.154l-0.435,-0.972l0.921,-0.356l0.153,-0.691l-1.534,0l0.051,-0.536l-0.331,-0.563l-0.92,-0.025l-0.435,-0.128l-0.511,1.226l-0.996,-0.281l-0.129,0.46l-0.562,-0.025l-0.383,0.919l-0.634,-8.505l0.716,-15.197l15.398,-11.627l0.126,-2.328l0.189,-4.165l6.121,-0.157l0.461,-0.552l0.971,-0.052l1.099,-3.092l1.329,2.787l0.868,0l0.206,1.124l81.568,-8.842l1.788,-0.111l33.406,-2.047l0.097,-3.414l2.452,0.048l0.914,-7.838l6.732,-0.626l1.971,4.136l0.145,1.732l-0.626,0.095l0.289,2.453l66.123,-7.099l0.353,3.651l0.912,0.07l2.599,21.207l0.702,0.282l0.561,36.281l39.324,-5.036l2.882,5.784l-14.462,-0.07l-0.275,-1.045l-1.538,0l-0.181,1.72l-36.374,8.777l-0.725,1.628l1.629,6.335l1.267,13.844Z"/>
        <path id="orangerie" d="M650.108,452.698l-1.309,0.682l-0.398,-1.365l-0.796,0.341l-0.057,1.992l-1.138,-0.399l-1.138,-2.332l-0.853,1.593l-1.309,0.796l-2.617,-0.17l0.057,1.877l-1.934,0.227l-1.024,-0.739l-1.763,0.739l-2.446,-0.227l-1.935,0.227l-1.763,-0.113l-1.309,1.251l-2.389,-0.114l-1.991,0.456l0.227,1.308l-2.73,0.227l-1.593,0.057l-1.593,-0.17l-0.512,-1.821l-1.138,0.171l-0.853,1.195l-0.114,-1.366l-2.844,0.057l-1.479,-1.081l-1.707,0.114l-1.479,1.252l-0.455,1.137l-1.365,-0.796l-2.617,0.114l-0.683,1.308l-1.365,-1.763l-1.991,0.227l-2.617,-0.455l-1.935,-1.081l-0.341,0.967l-0.91,-0.341l-0.626,1.707l0.967,0.568l-1.763,0.512l-0.342,1.252l0.74,0.284l-1.422,0.968l-0.854,-1.878l-0.853,0.967l-1.877,-0.512l-2.617,-0.682l-0.284,1.593l-1.366,-0.513l-1.365,-1.023l-0.057,2.616l-1.934,0.854l-1.024,-1.024l-1.309,0.853l0.114,0.796l-2.731,0.228l-0.853,-1.024l-2.389,1.65l-0.797,-1.252l-1.024,1.366l-2.218,-0.285l-0.114,-1.024l-1.365,-0.057l-0.228,-1.308l-1.65,0.569l-1.82,0.625l-1.764,0l-1.934,-0.455l-1.479,0.455l-0.626,0.911l-1.024,0.853l-1.649,0.228l-0.171,1.479l-1.365,-0.683l-1.366,0.398l-0.967,-0.967l-1.024,-0.057l-0.796,-0.739l-0.911,0.739l-1.08,0.91l-0.228,1.138l-0.171,1.423l-1.365,-0.057l-1.195,-0.911l-0.227,-0.967l-0.797,0l-0.512,-1.024l-1.08,0l-0.456,1.024l-1.251,-0.114l-1.081,-0.398l-0.967,0.569l-0.967,0.171l-0.342,1.024l-1.365,-0.114l-2.844,1.593l-1.821,-1.479l-1.422,-0.853l-1.934,0.398l0.341,0.967l-0.455,0.967l-0.91,-1.081l-1.764,0.057l-1.08,-0.455l-0.797,0.455l-2.275,-0.114l-1.138,0.171l0,1.024l-1.764,0.227l-1.308,-0.455l-0.228,1.024l-1.195,-0.512l-1.479,-0.114l-0.056,1.252l-1.65,0.853l-0.228,0.797l-1.081,0.512l-1.308,1.137l-0.796,0.911l-1.278,0.821l-1.475,-1.967l1.272,-0.772l3.584,-6.201l1.764,-6.884l0.569,-6.257l0.114,-7.168l6.648,-0.949l-0.913,-8.357l6.214,-1.879l5.898,0.599l1.89,7.05l2.857,-0.23l20.229,-12.856l21.012,6.359l7.603,-1.198l-0.138,-7.926l5.621,-2.35l6.037,0.23l2.166,6.958l48.798,-6.727l0.276,-7.004l5.253,-2.535l6.313,0.046l3.088,7.281l41.978,-5.806l1.588,0.437l-0.645,0.876l0.185,1.198l0.967,0.046l0.323,0.737l2.119,0.092l-0.46,1.613l-3.042,0.829l-0.046,1.245l3.088,0l-0.369,1.52l1.797,1.014l2.488,-0.507l1.475,0.922l-0.645,1.382l0.046,1.797l1.429,1.429l0.506,1.059l2.857,-0.092l-1.705,2.304l-0.046,1.843l2.028,0.046l1.705,0.553l-0.922,0.922l-2.396,0.23l2.12,1.291l0.645,0.967l-0.599,1.567l0.297,1.246l1.291,0.737l0.092,1.705l-1.936,1.244l-1.52,-0.599l-1.567,0.645l-0.922,-0.691l-1.889,0.599l-1.106,-1.152l-1.889,1.014l-1.014,0.599l-1.152,-0.599l-1.52,-0.092l-0.046,-1.29l-1.705,0.23l-1.014,1.29l-1.014,-1.382l-1.014,1.382l-1.106,-1.751l-1.105,1.613l-1.106,-1.106l-0.83,2.903l-1.152,0.784l-1.889,-0.968l-0.783,0.691l-0.185,1.567l-1.659,-0.507l0,-1.659l-1.797,-0.599l-0.23,0.968l-0.83,-0.415l-0.645,-0.876l-1.106,-0.092l-0.414,-1.613l-1.152,0.231l-0.599,2.027l-1.429,-0.23l-0.553,1.382l-0.414,-1.52l-1.106,0.322l-0.185,0.784l-1.843,-0.277l-1.659,0.415l-0.691,0.829l-1.152,-1.152l-1.152,0.139l-0.691,0.967l-1.567,-1.981l-1.06,-0.046l-0.645,2.073l0.645,1.751l0.784,1.659l-0.323,1.475l-1.106,0.507l0.092,1.013l0.047,0.876l-1.521,0.737l-1.106,-1.428l-0.553,-2.074l-1.705,-0.829l-0.369,-0.968l-1.981,0.461l-1.751,0.138l-0.737,-1.336l-0.922,0.875l-2.673,0.231l-0.921,-1.06l-2.258,-0.415l-0.599,0.737l-1.932,-0.663Z"/>
        <path id="orangerie-cour" d="M703.362,416.399l-0.49,1.513l1.588,0.437l-0.645,0.874l0.184,1.198l0.967,0.046l0.324,0.738l2.117,0.091l-0.459,1.613l-3.041,0.829l-0.046,1.244l3.087,0l-0.369,1.521l1.797,1.013l2.488,-0.507l1.474,0.922l-0.644,1.383l0.046,1.796l1.427,1.429l0.507,1.059l2.857,-0.093l-1.705,2.305l-0.047,1.842l2.028,0.046l1.705,0.553l-0.922,0.922l-2.396,0.231l2.12,1.29l0.644,0.967l-0.598,1.567l0.297,1.246l1.291,0.736l0.092,1.705l-1.936,1.245l-1.52,-0.6l-1.566,0.646l-0.921,-0.692l-1.889,0.598l-1.106,-1.151l-1.89,1.013l-1.013,0.599l-1.151,-0.599l-1.522,-0.091l-0.046,-1.29l-1.703,0.23l-1.015,1.289l-1.013,-1.381l-1.014,1.381l-1.105,-1.75l-1.107,1.612l-1.105,-1.105l-0.83,2.903l-1.151,0.783l-1.888,-0.967l-0.784,0.691l-0.184,1.565l-1.659,-0.507l0,-1.658l-1.797,-0.599l-0.23,0.968l-0.83,-0.415l-0.644,-0.874l-1.107,-0.092l-0.415,-1.614l-1.151,0.231l-0.598,2.027l-1.429,-0.231l-0.553,1.382l-0.413,-1.52l-1.108,0.323l-0.183,0.783l-1.844,-0.276l-1.659,0.414l-0.69,0.83l-1.152,-1.152l-1.151,0.138l-0.693,0.968l-1.566,-1.982l-1.059,-0.046l-0.646,2.074l0.646,1.75l0.783,1.659l-0.322,1.474l-1.107,0.507l0.093,1.013l0.046,0.876l-1.521,0.737l-1.106,-1.428l-0.552,-2.074l-1.705,-0.829l-0.369,-0.968l-1.98,0.461l-1.752,0.139l-0.736,-1.336l-0.922,0.875l-2.672,0.23l-0.922,-1.059l-2.258,-0.415l-0.598,0.737l-1.932,-0.664l-1.308,0.683l-0.399,-1.365l-0.795,0.341l-0.057,1.991l-1.138,-0.398l-1.137,-2.332l-0.854,1.592l-1.308,0.796l-2.617,-0.17l0.058,1.878l-1.935,0.227l-1.024,-0.739l-1.763,0.739l-2.446,-0.227l-1.934,0.227l-1.763,-0.113l-1.307,1.251l-2.39,-0.115l-1.991,0.455l0.228,1.309l-2.73,0.228l-1.593,0.057l-1.593,-0.172l-0.512,-1.82l-1.137,0.172l-0.853,1.193l-0.115,-1.365l-2.843,0.058l-1.48,-1.081l-1.705,0.114l-1.48,1.251l-0.455,1.138l-1.365,-0.797l-2.616,0.114l-0.683,1.308l-1.364,-1.763l-1.991,0.228l-2.617,-0.455l-1.933,-1.082l-0.342,0.967l-0.91,-0.34l-0.625,1.705l0.967,0.57l-1.765,0.511l-0.341,1.251l0.74,0.286l-1.422,0.967l-0.853,-1.878l-0.854,0.968l-1.876,-0.513l-2.618,-0.682l-0.283,1.593l-1.365,-0.513l-1.365,-1.024l-0.057,2.617l-1.934,0.853l-1.025,-1.023l-1.307,0.853l0.113,0.795l-2.73,0.228l-0.853,-1.023l-2.39,1.649l-0.796,-1.251l-1.024,1.364l-2.217,-0.284l-0.114,-1.023l-1.366,-0.057l-0.227,-1.308l-1.65,0.569l-1.82,0.625l-1.762,0l-1.935,-0.455l-1.479,0.455l-0.626,0.91l-1.023,0.853l-1.651,0.228l-0.169,1.478l-1.366,-0.683l-1.365,0.399l-0.967,-0.967l-1.023,-0.057l-0.797,-0.74l-0.91,0.74l-1.081,0.91l-0.228,1.138l-0.17,1.422l-1.365,-0.057l-1.194,-0.91l-0.228,-0.968l-0.796,0l-0.512,-1.023l-1.082,0l-0.455,1.023l-1.251,-0.113l-1.08,-0.398l-0.967,0.568l-0.967,0.171l-0.341,1.025l-1.366,-0.113l-2.844,1.591l-1.82,-1.478l-1.421,-0.853l-1.935,0.398l0.342,0.967l-0.455,0.966l-0.91,-1.08l-1.764,0.057l-1.08,-0.455l-0.796,0.455l-2.276,-0.113l-1.137,0.17l0,1.023l-1.763,0.228l-1.309,-0.455l-0.228,1.024l-1.195,-0.512l-1.478,-0.113l-0.057,1.25l-1.65,0.853l-0.226,0.797l-1.081,0.511l-1.309,1.138l-0.797,0.91l-1.277,0.821l-1.474,-1.966l1.272,-0.773l3.584,-6.199l1.762,-6.883l0.57,-6.256l0.113,-7.168l-0.184,-2.54l1.059,-1.153l1.442,-4.906l-0.096,-5.097l-1.299,-4.664l-2.501,-4.521l-3.124,-4.183l-3.464,-3.511l-3.991,-2.837l-4.472,-2.356l-0.096,-8.607l-1.298,-1.828l-2.211,-2.116l-1.732,-0.769l-4.376,0.191l-1.444,0.867l-0.864,1.49l-13.327,-12.685l-0.144,-3.847l0.768,-1.252l-0.817,-0.817l-0.241,-11.157l0.434,-1.443l-1.491,-1.153l-1.058,1.153l0.481,1.252l0.144,11.541l-0.769,0.721l0.721,1.106l-0.337,3.847l-26.689,22.89l-6.01,3.943l-7.261,6.684l-5.434,8.655l-0.818,8.127l0.53,5.771l-33.419,-116.009l2.715,-0.092l2.263,-1.085l1.537,-1.811l0.181,-3.346l-0.905,-2.987l-1.266,-5.701l73.383,-8.596l2.896,0.091l1.99,1.086l1.63,1.718l1.537,3.167l1.99,2.353l3.078,1.448l3.981,0.272l38.908,-3.71l1.63,-2.895l3.257,-4.253l3.167,-3.439l4.343,-3.528l5.61,-1.9l62.804,-6.127l1.99,0.544l0.905,1.539l0.634,1.537l-1.267,1.267l-1.809,1.81l0.271,2.17l0.995,1.087l1.629,-0.724l1.539,0.182l-0.997,2.443l-0.091,2.353l0.453,1.719l-1.538,1.899l0.906,2.262l-2.263,1.629l1.268,1.358l1.627,2.895l1.63,0.814l-0.182,2.263l1.81,0.813l1.448,0.996l3.892,-0.543l0,3.439l-0.816,2.985l-0.09,1.539l1.719,0.453l-0.995,1.719l2.986,0.995l-0.181,2.172l1.899,0.633l0.273,1.447l1.99,0.635l1.901,0l0.814,2.171l-0.363,2.804l2.806,3.258l-2.262,1.81l-0.724,1.267l-0.091,1.81l1.448,1.99l-0.814,0.995l3.62,0.725l0.181,1.265l1.266,-0.632l0.724,1.538l0.361,1.9l-0.27,2.443l1.9,0.724l-0.905,1.629l0.27,2.986l-0.089,1.811l1.809,0.451l-0.18,1.448l-1.719,-0.543l0.27,2.081l2.534,0.633l3.258,0.363l-1.54,1.809l-1.9,0.181l0.816,2.533l2.351,0.363l-0.451,1.266l-1.539,0.815l1.811,1.9l2.895,0.362l0.272,0.453l0.36,1.537l1.448,1.358l-1.355,1.538l0.995,1.9l1.175,0.634l1.303,0.949l0.177,1.721l0.891,-0.178l0.297,0.832l-0.059,1.424l1.246,0.773l-0.178,1.305l1.366,0.475l0.475,-1.128l1.306,-0.238l0.831,2.257l1.841,0.89l-0.239,2.494l2.078,0.83l0.713,0.891l0.594,-1.484l-0.832,-1.485l1.604,-1.246l3.063,1.122l2.639,0.513l0.806,2.273l1.026,0.073l1.099,1.246l2.42,-1.099l1.757,-1.099l0.368,1.465l2.566,-0.221l-0.953,1.906l0.658,1.98l2.566,-0.44l0.293,-1.026l1.905,-0.807l0.221,-1.172l1.612,1.1l0.586,-1.76l1.98,2.052l1.712,-1.691l0.953,0.879l2.346,-0.22l1.173,1.247l3.59,-0.734l0.221,-1.099l1.099,0.366l0.733,2.711l2.419,-0.878l0.44,2.125l0.073,1.319l-1.099,1.099l3.298,-0.218l-0.44,1.465l1.466,-0.147l-0.221,1.246l0.806,0.733l2.567,-0.585l-1.027,1.757l0,1.247l1.613,0.952l-0.221,1.026l1.613,0.513l-0.366,0.734l-1.54,0.806Z"/>
    </g>
-->

</svg>
