<?xml version="1.0" encoding="UTF-8"?>
<!DOCTYPE svg PUBLIC "-//W3C//DTD SVG 1.0//EN" "http://www.w3.org/TR/2001/REC-SVG-20010904/DTD/svg10.dtd">

<?xml-stylesheet href="../../image-map.css" type="text/css"?>
<?xml-stylesheet href="style.css" type="text/css"?>

<svg xmlns="http://www.w3.org/2000/svg" xmlns:xlink="http://www.w3.org/1999/xlink" version="1.0">

    <defs>
        <filter id="blur-filter">
            <feConvolveMatrix
                bias="0.10000000000000001"
                result="result0"
                preserveAlpha="true"
                targetY="1"
                targetX="1"
                divisor="0.01"
                in="SourceGraphic"
                kernelMatrix="1 1 1 1 -8 1 1 1 1"
                order="3 3"
                id="feConvolveMatrix1188"/>
            <feColorMatrix
                values="-0.15 -0.3 -0.05 0 1 -0.15 -0.3 -0.05 0 1 -0.15 -0.3 -0.05 0 1 0 0 0 1 0"
                result="result3"/>
        </filter>
    </defs>

    <image id="background" width="20071.51" height="21476.71" x="461.45" y="5600.09" xlink:href="map.png"/>
    
    <g id="regions">
        <g id="stator">
            <path d="M9674.78 7250.16l-1.07 -253.68 -611.48 52.41 -912.28 112.02 -724.22 132.05 -568.19 148.04 -476.15 164.06 -448.12 200.06 -368.12 216.07 -352.12 312.1 -240.06 344.09 -86.91 272.09 0 1181.64 412.16 0 11.18 -1187.67 51.04 -155.23 78.67 -138.21 163.74 -199.89 165.85 -159.48 195.64 -150.98 206.27 -121.2 250.91 -127.59 272.19 -112.71 316.83 -99.93 523.11 -148.85 474.18 -104.2 492.78 -75.18 509.28 -49.88 664.89 -49.95zm887.48 -23.89l665.96 5.59 501.41 68.25 475.16 89.26 412.16 97.14 417.41 131.25 406.92 144.4 367.53 162.76 307.14 160.14 257.28 175.88 207.38 175.9 170.64 199.51 136.52 220.53 81.38 236.26 -15.76 262.53 -76.13 244.13 -160.14 252.02 -244.14 231.04 -345.21 249.06 -336.11 200.07 -72.02 96.02 -11.71 1464.02 359.65 97.12 170.64 336.04 123.39 236.27 131.27 147 244.14 -196.89 244.15 -207.39 252.01 -254.64 55.13 15.74 559.17 -777.05 2.63 -1533.14 -120.76 -2.61 -36.76 -551.31 -18.38 -336.03 -68.25 -275.65 -70.88 -162.76 -267.78 7.88 -152.26 -191.64 -315.02 -283.53 -459.42 -286.14 -535.53 -257.28 -645.8 -244.15 -546.06 -173.25 -643.18 -139.15 -648.43 -78.75 -757.01 -31.68 -2.33 277.23z"/>
            <path d="M9674.78 7250.16l-1.07 -253.68 -611.48 52.41 -912.28 112.02 -724.22 132.05 -568.19 148.04 -476.15 164.06 -448.12 200.06 -368.12 216.07 -352.12 312.1 -240.06 344.09 -86.91 272.09 0 1181.64 412.16 0 11.18 -1187.67 51.04 -155.23 78.67 -138.21 163.74 -199.89 165.85 -159.48 195.64 -150.98 206.27 -121.2 250.91 -127.59 272.19 -112.71 316.83 -99.93 523.11 -148.85 474.18 -104.2 492.78 -75.18 509.28 -49.88 664.89 -49.95zm887.48 -23.89l665.96 5.59 501.41 68.25 475.16 89.26 412.16 97.14 417.41 131.25 406.92 144.4 367.53 162.76 307.14 160.14 257.28 175.88 207.38 175.9 170.64 199.51 136.52 220.53 81.38 236.26 -15.76 262.53 -76.13 244.13 -160.14 252.02 -244.14 231.04 -345.21 249.06 -336.11 200.07 -72.02 96.02 -11.71 1464.02 359.65 97.12 170.64 336.04 123.39 236.27 131.27 147 244.14 -196.89 244.15 -207.39 252.01 -254.64 55.13 15.74 559.17 -777.05 2.63 -1533.14 -120.76 -2.61 -36.76 -551.31 -18.38 -336.03 -68.25 -275.65 -70.88 -162.76 -267.78 7.88 -152.26 -191.64 -315.02 -283.53 -459.42 -286.14 -535.53 -257.28 -645.8 -244.15 -546.06 -173.25 -643.18 -139.15 -648.43 -78.75 -757.01 -31.68 -2.33 277.23z"/>
        </g>
        <g id="rotor">
            <path d="M9674.78 7250.16l-664.89 49.95 -509.28 49.88 -492.78 75.18 -474.18 104.2 -523.11 148.85 -316.83 99.93 -272.19 112.71 -250.91 127.59 -206.27 121.2 -195.64 150.98 -165.85 159.48 -163.74 199.89 -78.67 138.21 -51.04 155.23 -11.18 1187.67 -27.51 0 0 538.91 65.62 5.24 0 291.41 84.01 -2.63 7.88 178.51 110.26 2.62 10.5 110.28 120.76 7.86 13.12 139.14 126.01 13.13 18.38 136.5 131.27 -2.62 7.86 131.26 94.51 0 28.87 84.01 120.76 7.88 10.51 73.5 133.89 0 -10.51 244.15 2660.06 -1076.32 700.05 -278.73 0 -1408.01 85.43 6.83 183.77 5.26 241.52 0 354.4 -15.76 0 1265.09 129.98 56.02 368.12 -4.01 44 42.01 2607.46 0 0.44 -54.63 72.02 -96.02 336.11 -200.07 345.21 -249.06 244.14 -231.04 160.14 -252.02 76.13 -244.13 15.76 -262.53 -81.38 -236.26 -136.52 -220.53 -170.64 -199.51 -207.38 -175.9 -257.28 -175.88 -307.14 -160.14 -367.53 -162.76 -406.92 -144.4 -417.41 -131.25 -412.16 -97.14 -475.16 -89.26 -501.41 -68.25 -665.96 -5.59 -5.54 658.39 172.9 39.52 143.26 93.85 83.97 103.74 -9.88 454.46 -88.91 83.99 -167.96 88.89 -266.75 83.99 -360.61 39.52 -261.8 -14.82 -237.11 -49.39 -172.9 -74.11 -158.07 -138.31 -9.89 -419.89 69.17 -133.36 187.71 -108.68 197.59 -54.34 -2.66 -629.56zm-4403.4 5860.93l533.47 -1466.8 -88.95 -32.36 -510.66 1404.09 -2206.01 0 0 952.46 2272.15 0 0 -857.39z"/>
            <path d="M9674.78 7250.16l-664.89 49.95 -509.28 49.88 -492.78 75.18 -474.18 104.2 -523.11 148.85 -316.83 99.93 -272.19 112.71 -250.91 127.59 -206.27 121.2 -195.64 150.98 -165.85 159.48 -163.74 199.89 -78.67 138.21 -51.04 155.23 -11.18 1187.67 -27.51 0 0 538.91 65.62 5.24 0 291.41 84.01 -2.63 7.88 178.51 110.26 2.62 10.5 110.28 120.76 7.86 13.12 139.14 126.01 13.13 18.38 136.5 131.27 -2.62 7.86 131.26 94.51 0 28.87 84.01 120.76 7.88 10.51 73.5 133.89 0 -10.51 244.15 2660.06 -1076.32 700.05 -278.73 0 -1408.01 85.43 6.83 183.77 5.26 241.52 0 354.4 -15.76 0 1265.09 129.98 56.02 368.12 -4.01 44 42.01 2607.46 0 0.44 -54.63 72.02 -96.02 336.11 -200.07 345.21 -249.06 244.14 -231.04 160.14 -252.02 76.13 -244.13 15.76 -262.53 -81.38 -236.26 -136.52 -220.53 -170.64 -199.51 -207.38 -175.9 -257.28 -175.88 -307.14 -160.14 -367.53 -162.76 -406.92 -144.4 -417.41 -131.25 -412.16 -97.14 -475.16 -89.26 -501.41 -68.25 -665.96 -5.59 -5.54 658.39 172.9 39.52 143.26 93.85 83.97 103.74 -9.88 454.46 -88.91 83.99 -167.96 88.89 -266.75 83.99 -360.61 39.52 -261.8 -14.82 -237.11 -49.39 -172.9 -74.11 -158.07 -138.31 -9.89 -419.89 69.17 -133.36 187.71 -108.68 197.59 -54.34 -2.66 -629.56zm-4403.4 5860.93l533.47 -1466.8 -88.95 -32.36 -510.66 1404.09 -2206.01 0 0 952.46 2272.15 0 0 -857.39z"/>
        </g>
        <g id="shaft">
            <path d="M10652.26 17768.64l43.35 -3690.93 108.04 -96.04 68.03 -108.03 0 -496.15 -52.03 -176.06 -108.03 -104.03 -132.04 -76.03 0 -1264.39 124.04 -20.01 204.07 -64.01 204.05 -84.04 120.05 -80.02 0 -664.2 -76.03 -120.04 -88.02 -84.03 -368.12 4.01 -129.98 -56.02 0 -1265.09 -354.4 15.76 -241.52 0 -183.77 -5.26 -85.43 -6.83 0 1408.01 -700.05 278.73 0 440.78 145.85 94 210.67 100.46 197.7 64.83 142.59 32.4 0 1221.87 -184.72 103.7 -100.48 103.72 -77.79 162.05 -3.24 544.48 87.51 123.16 110.2 84.27 -6.38 3674.08 7.24 386.42 0 1208.9 116.68 38.89 217.16 32.41 233.34 6.48 243.08 -12.97 181.5 -29.16 106.96 -25.93 16.2 -1208.9 3.72 -391.24zm-589.52 -8896.02l-261.8 -14.82 -237.11 -49.39 -172.9 -74.11 -158.07 -138.31 -9.89 -419.89 69.17 -133.36 187.71 -108.68 197.59 -54.34 -4.94 -1170.73 -138.32 -59.28 0 -548.32 74.1 -103.73 163.02 -93.86 296.38 -49.41 316.14 39.52 187.72 74.1 98.81 133.38 4.94 528.56 -108.69 79.04 -9.88 1175.67 172.9 39.52 143.26 93.85 83.97 103.74 -9.88 454.46 -88.91 83.99 -167.96 88.91 -266.75 83.98 -360.61 39.51z"/>
            <path d="M10652.26 17768.64l43.35 -3690.93 108.04 -96.04 68.03 -108.03 0 -496.15 -52.03 -176.06 -108.03 -104.03 -132.04 -76.03 0 -1264.39 124.04 -20.01 204.07 -64.01 204.05 -84.04 120.05 -80.02 0 -664.2 -76.03 -120.04 -88.02 -84.03 -368.12 4.01 -129.98 -56.02 0 -1265.09 -354.4 15.76 -241.52 0 -183.77 -5.26 -85.43 -6.83 0 1408.01 -700.05 278.73 0 440.78 145.85 94 210.67 100.46 197.7 64.83 142.59 32.4 0 1221.87 -184.72 103.7 -100.48 103.72 -77.79 162.05 -3.24 544.48 87.51 123.16 110.2 84.27 -6.38 3674.08 7.24 386.42 0 1208.9 116.68 38.89 217.16 32.41 233.34 6.48 243.08 -12.97 181.5 -29.16 106.96 -25.93 16.2 -1208.9 3.72 -391.24zm-589.52 -8896.02l-261.8 -14.82 -237.11 -49.39 -172.9 -74.11 -158.07 -138.31 -9.89 -419.89 69.17 -133.36 187.71 -108.68 197.59 -54.34 -4.94 -1170.73 -138.32 -59.28 0 -548.32 74.1 -103.73 163.02 -93.86 296.38 -49.41 316.14 39.52 187.72 74.1 98.81 133.38 4.94 528.56 -108.69 79.04 -9.88 1175.67 172.9 39.52 143.26 93.85 83.97 103.74 -9.88 454.46 -88.91 83.99 -167.96 88.91 -266.75 83.98 -360.61 39.51z"/>
        </g>
        <g id="gate">
            <path d="M10648.54 18159.88l90.74 16.21 158.82 35.66 178.26 51.85 181.49 68.05 123.16 87.52 87.5 100.47 60.82 152.45 -199.55 1665.19 184.74 12.96 298.17 19.45 375.96 -6.48 -55.1 217.15 -19.45 213.9 -9.72 155.57 -476.42 -233.35 142.6 696.82 -97.23 58.34 35.66 51.85 87.5 304.66 64.81 275.49 35.66 181.49 126.4 6.48 301.42 -6.48 184.73 -38.9 93.15 -45.06 56.46 1491.77 14.85 228.53 1542.72 596.35 187.98 -48.61 210.67 -93.99 249.55 -123.17 223.64 -149.08 197.7 -171.77 171.77 -187.98 119.92 -162.05 106.94 -187.98 89.39 -194.95 -585.51 -2811.23 -745.44 -158.82 -3.24 -1027.4 375.97 -71.31 3.94 -1911.96 -64.82 -58.33 -93.99 -25.93 -136.13 12.96 0 -531.53 -25.92 -58.33 -81.04 -35.65 -139.36 29.17 -93.98 71.31 -6.48 651.44 -145.85 93.98 -181.51 132.88 -207.42 158.81 -3.24 904.25 -110.18 -48.63 -0.34 -2703.53 -27.56 -44.77 -43.05 -20.67 -56.85 1.72 13.79 -528.77 -12.06 -60.29 -53.41 -37.89 -118.83 1.73 -65.45 29.27 3.43 737.19 -84.39 93.01 -108.51 156.73 -106.22 178.56 -2.38 1923.03 -267.79 -99.75 -262.51 -89.26 -236.26 -52.51 -7.47 -2967.81 -34.03 -10.63 -12.92 -680.73 -62.78 -22.32 -87.89 -1.4 -76.73 16.74 -22.32 50.23 2.78 842.66 -49.04 31 -4.28 2652.32 -451.54 -94.51 -399.03 -47.25 -244.15 2.62 -3.72 391.24zm-3032.43 4939.95l-30.33 -1011.84 -466.71 -401.88 187.99 -100.48 -3.24 -1280.2 223.63 -369.47 583.37 301.42 61.59 -197.71 103.71 -197.7 175.02 -197.7 139.36 -126.4 149.09 -116.68 74.53 29.17 -71.29 -706.54 9.72 -123.16 32.41 -84.26 165.29 55.08 246.32 64.83 175.01 35.65 12.97 -489.39 149.07 -32.41 -7.24 -386.42 -139.13 15.75 -10.51 -2115.93 -209.89 -180.87 -189.01 -136.51 -149.63 -78.76 23.62 -847.94 -136.52 -2.63 -131.27 65.64 -5.23 677.3 -91.89 -31.5 -131.26 -2.62 -110.25 44.63 -78.76 81.37 -5.26 2783.06 -299.82 97.82 -8.98 -2106.55 -142.47 -72.3 -182.87 -65.92 -178.62 -63.8 -119.08 -29.77 -10.63 -784.65 -72.3 -17.01 -157.36 4.25 -38.27 34.03 2.12 695.34 -231.77 -6.38 -119.09 34.03 -112.7 59.53 -63.78 82.93 -1.47 1469.4 -177.41 -1.72 -5.17 -654.51 -75.78 -67.18 -106.79 0 -101.62 82.68 -1.72 670.03 -153.31 12.04 -158.45 43.06 -148.14 84.41 -48.22 113.68 9.76 1976.86 -253.75 425.92 -149.09 359.77 -181.72 733.94 -196.06 1012.31 -320.11 1800.57 1612.5 1472.45 1636.52 -636.18 10.37 -1693.98z" class="fil0"/>
            <path d="M10648.54 18159.88l90.74 16.21 158.82 35.66 178.26 51.85 181.49 68.05 123.16 87.52 87.5 100.47 60.82 152.45 -199.55 1665.19 184.74 12.96 298.17 19.45 375.96 -6.48 -55.1 217.15 -19.45 213.9 -9.72 155.57 -476.42 -233.35 142.6 696.82 -97.23 58.34 35.66 51.85 87.5 304.66 64.81 275.49 35.66 181.49 126.4 6.48 301.42 -6.48 184.73 -38.9 93.15 -45.06 56.46 1491.77 14.85 228.53 1542.72 596.35 187.98 -48.61 210.67 -93.99 249.55 -123.17 223.64 -149.08 197.7 -171.77 171.77 -187.98 119.92 -162.05 106.94 -187.98 89.39 -194.95 -585.51 -2811.23 -745.44 -158.82 -3.24 -1027.4 375.97 -71.31 3.94 -1911.96 -64.82 -58.33 -93.99 -25.93 -136.13 12.96 0 -531.53 -25.92 -58.33 -81.04 -35.65 -139.36 29.17 -93.98 71.31 -6.48 651.44 -145.85 93.98 -181.51 132.88 -207.42 158.81 -3.24 904.25 -110.18 -48.63 -0.34 -2703.53 -27.56 -44.77 -43.05 -20.67 -56.85 1.72 13.79 -528.77 -12.06 -60.29 -53.41 -37.89 -118.83 1.73 -65.45 29.27 3.43 737.19 -84.39 93.01 -108.51 156.73 -106.22 178.56 -2.38 1923.03 -267.79 -99.75 -262.51 -89.26 -236.26 -52.51 -7.47 -2967.81 -34.03 -10.63 -12.92 -680.73 -62.78 -22.32 -87.89 -1.4 -76.73 16.74 -22.32 50.23 2.78 842.66 -49.04 31 -4.28 2652.32 -451.54 -94.51 -399.03 -47.25 -244.15 2.62 -3.72 391.24zm-3032.43 4939.95l-30.33 -1011.84 -466.71 -401.88 187.99 -100.48 -3.24 -1280.2 223.63 -369.47 583.37 301.42 61.59 -197.71 103.71 -197.7 175.02 -197.7 139.36 -126.4 149.09 -116.68 74.53 29.17 -71.29 -706.54 9.72 -123.16 32.41 -84.26 165.29 55.08 246.32 64.83 175.01 35.65 12.97 -489.39 149.07 -32.41 -7.24 -386.42 -139.13 15.75 -10.51 -2115.93 -209.89 -180.87 -189.01 -136.51 -149.63 -78.76 23.62 -847.94 -136.52 -2.63 -131.27 65.64 -5.23 677.3 -91.89 -31.5 -131.26 -2.62 -110.25 44.63 -78.76 81.37 -5.26 2783.06 -299.82 97.82 -8.98 -2106.55 -142.47 -72.3 -182.87 -65.92 -178.62 -63.8 -119.08 -29.77 -10.63 -784.65 -72.3 -17.01 -157.36 4.25 -38.27 34.03 2.12 695.34 -231.77 -6.38 -119.09 34.03 -112.7 59.53 -63.78 82.93 -1.47 1469.4 -177.41 -1.72 -5.17 -654.51 -75.78 -67.18 -106.79 0 -101.62 82.68 -1.72 670.03 -153.31 12.04 -158.45 43.06 -148.14 84.41 -48.22 113.68 9.76 1976.86 -253.75 425.92 -149.09 359.77 -181.72 733.94 -196.06 1012.31 -320.11 1800.57 1612.5 1472.45 1636.52 -636.18 10.37 -1693.98z"/>
        </g>
        <g id="blades">
            <path d="M7616.11 23099.83l353.28 -369.47 123.15 246.31 230.12 427.82 281.97 434.28 -427.81 1776.09 -2281.67 0 0 933.41 2758.09 0 0 -933.41 -314.38 0 868.6 -648.2 87.5 243.08 175.03 460.22 220.38 499.11 119.91 217.15 129.65 184.73 155.56 149.1 145.86 77.78 132.87 25.93 155.57 -12.97 158.81 -81.03 152.32 -123.15 175.02 -187.99 178.25 -268.99 184.75 -350.04 239.83 -547.72 243.08 -657.94 184.73 -469.93 16.21 -71.31 596.33 -359.75 -56.46 -1491.77 -93.15 45.06 -184.73 38.9 -301.41 6.49 -126.41 -6.49 -35.66 -181.49 -64.81 -275.49 -87.5 -304.66 -35.66 -51.85 97.23 -58.34 -142.6 -696.82 476.42 233.35 9.74 -155.57 19.43 -213.9 55.11 -217.15 -375.97 6.48 -298.17 -19.45 -184.74 -12.96 199.55 -1665.19 -60.8 -152.45 -87.52 -100.47 -123.16 -87.52 -181.49 -68.05 -178.26 -51.85 -158.82 -35.66 -90.74 -16.21 -16.2 1208.9 -106.96 25.93 -181.49 29.17 -243.09 12.96 -233.34 -6.48 -217.16 -32.41 -116.68 -38.89 0 -1208.9 -149.07 32.41 -12.96 489.39 -175.02 -35.65 -246.32 -64.83 -165.29 -55.08 -32.41 84.26 -9.72 123.16 71.31 706.54 -74.55 -29.17 -149.09 116.68 -139.36 126.4 -175.02 197.7 -103.71 197.7 -61.59 197.71 -583.37 -301.42 -223.63 369.47 3.24 1280.2 -187.99 100.48 466.71 401.88 30.33 1011.84zm4955.13 -2030.74l66.96 -196.72 118.59 -210.67 128.35 -166.02 124.18 -125.56 -6.98 574.8 -207.88 43.25 -223.22 80.92 223.22 -80.92 207.88 -43.25 6.98 -574.8 -124.18 125.56 -128.35 166.02 -118.59 210.67 -66.96 196.72z" class="fil0"/>
            <path d="M7616.11 23099.83l353.28 -369.47 123.15 246.31 230.12 427.82 281.97 434.28 -427.81 1776.09 -2281.67 0 0 933.41 2758.09 0 0 -933.41 -314.38 0 868.6 -648.2 87.5 243.08 175.03 460.22 220.38 499.11 119.91 217.15 129.65 184.73 155.56 149.1 145.86 77.78 132.87 25.93 155.57 -12.97 158.81 -81.03 152.32 -123.15 175.02 -187.99 178.25 -268.99 184.75 -350.04 239.83 -547.72 243.08 -657.94 184.73 -469.93 16.21 -71.31 596.33 -359.75 -56.46 -1491.77 -93.15 45.06 -184.73 38.9 -301.41 6.49 -126.41 -6.49 -35.66 -181.49 -64.81 -275.49 -87.5 -304.66 -35.66 -51.85 97.23 -58.34 -142.6 -696.82 476.42 233.35 9.74 -155.57 19.43 -213.9 55.11 -217.15 -375.97 6.48 -298.17 -19.45 -184.74 -12.96 199.55 -1665.19 -60.8 -152.45 -87.52 -100.47 -123.16 -87.52 -181.49 -68.05 -178.26 -51.85 -158.82 -35.66 -90.74 -16.21 -16.2 1208.9 -106.96 25.93 -181.49 29.17 -243.09 12.96 -233.34 -6.48 -217.16 -32.41 -116.68 -38.89 0 -1208.9 -149.07 32.41 -12.96 489.39 -175.02 -35.65 -246.32 -64.83 -165.29 -55.08 -32.41 84.26 -9.72 123.16 71.31 706.54 -74.55 -29.17 -149.09 116.68 -139.36 126.4 -175.02 197.7 -103.71 197.7 -61.59 197.71 -583.37 -301.42 -223.63 369.47 3.24 1280.2 -187.99 100.48 466.71 401.88 30.33 1011.84zm4955.13 -2030.74l66.96 -196.72 118.59 -210.67 128.35 -166.02 124.18 -125.56 -6.98 574.8 -207.88 43.25 -223.22 80.92 223.22 -80.92 207.88 -43.25 6.98 -574.8 -124.18 125.56 -128.35 166.02 -118.59 210.67 -66.96 196.72z" class="fil1 str0"/>
            <polygon points="8660.43,23955.84 8812.76,24150.29 9013.71,24377.17 9191.96,24889.25 8268.27,25563.38"/>
        </g>
    </g>

</svg>
