<?xml version="1.0" encoding="UTF-8"?>
<!DOCTYPE svg PUBLIC "-//W3C//DTD SVG 1.1//EN" "http://www.w3.org/Graphics/SVG/1.1/DTD/svg11.dtd">
<!-- Creator: CorelDRAW Home & Student 2018 -->
<svg xmlns="http://www.w3.org/2000/svg" xml:space="preserve"  version="1.1" style="shape-rendering:geometricPrecision; text-rendering:geometricPrecision; image-rendering:optimizeQuality; fill-rule:evenodd; clip-rule:evenodd"
viewBox="0 0 8669.86 5782.72"
 xmlns:xlink="http://www.w3.org/1999/xlink">
 <defs>
  <style type="text/css">
   <![CDATA[
    .str0 {stroke:black;stroke-width:8.5;stroke-miterlimit:10}
    .fil0 {fill:none;fill-rule:nonzero}
   ]]>
  </style>
   <clipPath id="id0">
    <rect x="0.01" width="8669.85" height="5782.73"/>
   </clipPath>
   <clipPath id="id1">
    <path d="M3607.53 2289.82l9.83 16.39 24.58 0 9.83 -13.12 4.91 -13.11 100.76 -9.83 19.66 9.83 12.29 -4.92 4.91 -9.83 95.84 -9.83 4.92 8.19 78.63 -4.92 7.38 14.76 19.66 0 2.45 -9.84 4.92 0 0 -8.19 2.45 -8.2 7.38 -4.92 176.93 -21.31 4.92 18.03 27.03 1.64 12.29 -4.91 7.37 -13.12 12.29 0 2.45 -4.91 49.15 -1.64 0 -16.39 90.93 -11.48 9.83 18.03 19.66 0 12.28 -9.83 14.75 -3.28 -2.46 -13.11 90.93 -11.48 22.11 13.12 19.66 0 12.29 -8.2 -2.46 -13.11 78.64 -9.84 14.75 6.56 19.66 8.2 22.11 -1.64 7.38 -11.48 0 -13.11 88.46 -16.39 12.29 14.75 14.74 6.56 14.75 0 7.37 -16.39 7.37 -11.48 98.3 -16.39 17.2 21.31 22.12 -1.64 17.2 -8.19 4.92 -19.67 14.74 -4.92 19.66 -4.92 2.46 -18.03 -12.29 -13.11 2.46 -13.11 14.74 14.75 17.21 -11.48 -9.83 -8.19 0 -9.84 24.57 0 0 -9.83 -7.37 -16.39 2.46 -11.47 9.83 1.63 0 -11.47 22.11 4.92 2.46 -8.2 19.66 -6.55 9.83 -8.2 12.29 -3.28 -7.38 -13.11 9.83 -6.56 12.29 11.48 9.83 0 2.46 -8.2 12.29 -1.64 0 -103.26 2.45 -8.2 4.92 -14.75 -51.61 -324.54 -81.09 6.56 -7.38 -22.95 -9.83 -18.03 -12.28 -13.11 -22.12 -6.56 -22.12 0 -19.66 3.28 -17.2 14.75 -4.91 0 -4.92 62.29 -289.98 18.03 2.46 -72.12 -9.83 -6.56 0 -54.09 -4.91 -9.83 -9.83 -1.64 -2.46 -101.63 -2.46 -6.55 -7.37 -1.64 -7.37 -4.92 -4.92 4.92 0 72.12 -7.37 -1.64 -2.46 36.06 -7.37 0 0 36.06 -7.37 1.64 0 129.49 -130.25 13.11 -24.57 -52.45 -31.95 -9.84 -27.03 -1.64 -24.57 9.84 -17.21 16.39 -2.45 14.75 4.91 36.06 -113.04 8.2 -4.92 -6.56 -2.45 -49.17 4.91 -4.92 0 -8.2 -7.37 -60.64 -12.29 0 0 -16.39 -12.29 -13.12 -2.45 -18.03 -4.92 -4.91 -7.37 3.28 0 14.75 -7.37 1.64 0 24.58 -7.37 1.64 0 -14.75 -7.38 1.64 -2.45 19.67 -14.75 9.83 -2.46 124.57 -159.73 -63.92 -167.11 101.62 -2.45 11.48 -157.28 13.11 -9.83 -40.98 -12.29 -13.11 -19.66 -4.92 -24.57 1.64 -14.75 3.28 -14.74 14.75 -9.83 1.64 -2.46 55.73 -184.31 19.67 -2.45 -34.42 -17.2 -21.31 -22.12 -6.56 -27.03 0 -27.04 11.48 -17.2 13.11 -4.91 0 2.45 52.45 -76.18 9.84 -2.45 -78.68 -2.46 -40.98 -9.83 0 0 -27.86 -14.75 -1.64 0 29.5 -7.37 0 0 -36.06 -19.66 0 0 34.42 -12.28 0 0 -14.75 -17.21 -1.64 -2.45 24.59 -9.83 1.64 2.45 42.61 -2.45 85.24 -56.52 3.27 -4.92 -31.14 -9.83 -18.03 -12.29 -11.47 -17.2 -6.56 -22.12 -1.64 -22.11 4.92 -17.2 6.56 -9.83 9.83 -14.75 1.64 2.46 54.09 -41.78 0 -2.46 -60.65 4.92 -8.19 -2.46 -9.84 -7.37 -3.27 0 -32.79 -14.75 -1.64 -2.45 -26.22 -4.92 -1.64 0 -8.2 -4.91 -29.5 -46.69 3.28 2.45 21.31 9.83 39.34 -2.45 136.04 -14.75 1.64 -4.91 -14.75 -4.92 9.83 -4.91 -3.28 -2.46 -24.58 -7.37 -8.2 -22.12 -9.83 -24.57 -1.64 -27.04 6.55 -22.11 11.48 -7.38 0 -4.91 8.19 2.46 59.01 -103.22 8.2 -12.28 13.11 4.91 80.31 -12.29 1.64 7.38 62.29 7.37 0 22.12 180.3 4.91 3.28 4.92 306.51 334.21 -42.62 24.57 49.18 39.32 0 4.92 -16.4 9.83 -4.91 17.2 -4.92 2.46 -16.39 29.49 0 17.2 8.19 -2.46 -16.39 -7.37 -21.3 -14.75 -22.95 12.29 -1.64 115.5 -13.11 4.91 8.19 12.29 1.64 17.2 -1.64 7.38 -11.47 117.95 -13.12 4.92 8.2 17.2 4.92 14.75 -8.2 0 -11.47 95.84 -13.11 4.91 4.91 56.52 -4.91 2.46 -9.84 90.92 -9.83 0 0z"/>
   </clipPath>
   <clipPath id="id2">
    <path d="M5229.45 1935.77l17.2 8.2 4.91 -9.84 14.75 8.2 14.74 -9.84 4.92 13.12 24.57 -3.28 9.83 -1.64 2.46 -14.75 22.12 0 12.28 -19.67 9.83 11.47 12.29 -11.47 17.2 1.64 2.46 18.03 14.74 -1.64 4.92 11.47 17.2 0 -2.46 -14.75 24.58 -6.56 4.91 11.48 7.38 -8.2 12.28 -6.55 9.83 -3.28 12.29 -8.2 4.91 -16.39 14.75 -1.64 4.91 19.67 4.92 -3.28 4.91 -14.75 9.83 11.47 0 -21.3 12.29 -3.28 9.83 13.11 14.75 -19.67 9.82 -3.28 4.92 -8.19 17.2 3.28 7.37 -11.48 12.29 3.28 17.2 -11.47 14.75 -1.64 2.46 -6.56 9.83 0 7.37 14.75 9.83 -14.75 7.37 -3.28 7.37 13.12 9.83 0 7.37 -18.03 14.75 3.27 14.74 -3.27 7.38 4.91 17.2 4.92 2.46 4.92 14.74 3.28 12.29 -13.12 7.37 9.84 2.46 -16.39 17.2 -1.64 4.91 11.47 17.21 0 9.83 -8.19 7.37 -8.2 12.29 1.64 2.45 8.2 9.83 0 7.37 -6.56 29.49 -4.92 7.38 8.2 2.45 -19.67 17.21 -13.11 9.83 16.39 14.74 1.64 0 -9.84 9.83 -1.64 7.37 14.75 12.29 -14.75 17.2 0 0 19.67 19.66 0 14.75 1.64 12.28 -3.28 7.38 -9.83 19.66 3.28 14.74 -1.64 7.37 19.67 17.2 0 12.29 13.11 27.03 3.28 7.38 24.58 12.28 -18.03 4.92 24.59 12.28 -6.56 9.83 27.87 12.29 0 4.92 21.31 9.83 -9.84 12.28 4.92 0 19.67 4.92 21.31 12.29 14.75 29.49 -3.28 29.48 55.73 1081.28 -132.77 7.37 -8.19 0 -19.67 -9.83 1.64 -4.91 -13.12 0 -11.47 -12.29 -4.92 0 -11.47 12.29 -4.92 -7.38 -4.92 4.92 -13.11 19.66 0 4.91 -13.11 -14.74 -3.28 -14.75 -8.19 4.92 -18.03 14.74 0 0 -8.2 -12.28 -8.2 0 -22.94 14.74 -4.92 0 -11.47 -2.46 -14.76 7.38 -1.63 12.28 -16.4 12.29 -3.27 4.92 -6.56 12.28 -4.92 2.46 -8.19 9.83 1.64 4.91 9.83 17.21 -1.64 4.91 -31.14 9.83 0 0 13.11 7.37 -4.92 9.83 -4.91 14.75 1.64 7.37 4.91 9.83 -3.27 2.46 -32.79 44.23 1.64 4.92 -9.83 4.91 1.64 9.83 9.83 7.37 0 0 -18.03 36.86 -4.92 27.04 1.64 12.28 4.92 0 -14.75 9.83 -3.28 2.46 16.39 24.58 -4.92 4.91 -11.47 4.92 0 4.91 9.84 19.66 0 12.29 4.91 12.28 0 17.21 -6.55 0 -8.2 12.28 0 7.38 -11.47 7.37 0 9.83 11.47 12.29 0 0 6.56 9.82 1.64 7.38 -11.48 7.37 0 24.57 16.39 2.46 -8.19 12.29 -1.64 12.29 19.67 17.2 0 0 -22.95 14.74 -3.28 19.66 -237.67 12.29 -1.64 0 -13.11 22.12 -21.31 2.45 -14.75 -22.11 -31.14 4.91 -80.32 17.2 -3.27 7.38 -11.48 0 -24.58 -17.21 -3.28 -135.16 -236.03 2.46 -93.43 7.37 -1.64 0 -13.11 -34.4 -50.81 -41.78 1.63 -2.45 16.4 -4.92 -8.2 -14.74 0 -2.46 26.23 -462 40.97 0 -9.83 -9.83 -24.59 -4.91 -3.28 -2.46 -36.06 -19.66 0 0 -13.11 -17.2 0 -2.46 19.67 -9.83 1.64 2.46 63.92 -9.83 1.64 -4.92 16.39 -58.98 3.28 0 34.42 -272.77 32.78 0 -9.83 -4.92 -11.47 -7.37 1.64 2.46 -13.12 -14.75 -11.47 -12.28 -1.64 -12.29 1.64 -7.37 11.47 0 29.51 -14.75 3.27 -4.91 4.92 -570.13 62.29 0 -9.84 -12.29 -18.03 -7.37 0 -7.37 11.48 -2.46 -11.48 -14.74 0 -7.38 16.39 -2.45 -14.75 -9.83 0 0 13.11 -12.29 0 -4.92 31.15 -405.47 40.97 -4.92 -50.81 -12.29 -1.64 -4.91 21.31 -2.46 -42.61 -9.83 -8.2 -4.91 36.06 0 -22.95 -7.37 -8.19 -7.38 6.55 -4.91 29.51 -14.75 4.91 2.46 50.82 -7.37 0 -17.2 -27.87 -469.37 60.65 0 -19.67 -17.21 -3.28 -2.45 22.95 -7.38 0 -2.45 -26.23 -14.75 -1.64 0 32.79 -14.74 1.63 -2.46 6.56 -88.47 8.2 0 49.17 4.92 13.11 0 96.71 -14.75 3.28 -2.46 8.19 0 22.95 7.38 16.39 -12.29 172.11 4.91 9.83 7.38 22.95 81.09 -6.56 51.61 324.54 -4.92 14.75 -2.45 8.2 0 103.26 0 0z"/>
   </clipPath>
   <clipPath id="id3">
    <path d="M5521.88 3837.12l4.92 -6.55 19.66 3.27 7.37 9.84 22.12 -3.28 7.37 -6.56 7.37 11.48 14.74 -1.64 17.21 -3.28 2.45 8.2 14.75 6.55 4.91 18.03 9.83 11.48 12.29 -6.56 0 -6.56 -2.46 -8.19 9.83 -4.92 2.46 -13.11 -4.91 -13.12 -7.38 -14.75 7.38 -18.03 7.37 0 14.74 16.39 4.92 -8.19 9.83 0 9.83 9.83 4.91 -8.19 14.75 -3.28 17.2 3.28 0 -6.56 9.83 -3.28 2.46 13.12 4.91 -11.48 12.29 1.64 4.91 -18.03 9.83 -1.64 4.92 14.75 9.83 0 4.91 8.2 7.37 3.28 0 -8.2 17.21 4.92 0 13.11 12.28 4.92 2.46 -13.11 7.37 -6.56 14.75 8.2 9.83 -6.56 7.37 -24.59 9.83 9.84 9.83 -13.12 7.37 14.76 9.83 -11.48 7.37 11.48 9.83 -11.48 14.75 -1.64 0 9.84 12.29 1.64 9.83 4.91 9.83 -4.91 14.74 -8.2 9.83 9.84 17.2 -4.92 7.37 4.92 12.29 -4.92 12.29 4.92 17.2 -11.48 0 -13.11 -12.29 -6.56 -2.45 -11.47 4.91 -13.11 -4.91 -8.2 -17.21 -9.83 19.66 -3.28 7.38 -6.56 -14.75 -4.91 -17.2 0 0 -16.4 14.74 -19.66 -24.57 1.63 -2.46 -9.83 -12.29 -11.47 0 -14.76 4.92 -13.11 -12.29 -6.56 -22.11 3.28 -14.75 -8.19 2.46 -13.12 -24.58 0 0 -9.83 24.58 -8.2 4.91 -13.11 -17.2 0 -4.91 -6.55 -7.38 0 0 -11.48 4.92 -6.55 -14.75 -3.28 -353.87 49.17 -27.03 -62.29 -54.06 0 -44.24 21.31 -2.45 59.01 -412.85 57.37 -19.66 -59.01 -49.15 -1.64 -49.15 19.67 2.46 67.2 -66.36 9.84 -176.93 -54.09 -172.02 109.82 -24.58 1.64 -14.74 -60.65 -49.15 -4.92 -54.06 16.39 7.37 70.49 -56.52 8.19 0 60.65 -4.92 52.45 -14.74 59.01 -29.49 52.45 -12.29 6.55 12.29 16.39 12.29 -6.55 4.91 -8.2 12.29 -9.83 9.83 -3.28 0 -6.56 14.74 -8.19 0 -9.84 12.29 0 12.29 4.92 0 -8.2 12.28 3.28 14.75 -1.64 0 -8.19 9.83 -1.64 19.66 0 4.91 -3.28 9.83 3.28 14.75 0 7.37 9.83 4.91 -8.19 -2.45 -8.2 14.74 -4.91 12.29 8.19 17.2 13.11 22.12 -14.75 12.28 1.64 2.46 -8.19 9.83 -1.64 7.37 -4.92 9.83 3.28 9.83 0 4.92 -8.2 7.37 0 4.92 8.2 7.37 0 2.46 8.19 9.83 8.2 9.83 0 2.45 -11.48 2.46 -9.83 9.83 -8.2 7.37 -4.91 4.92 4.91 9.83 1.64 7.37 8.2 12.29 -3.28 12.28 4.92 0 -11.48 14.75 -3.27 7.37 -6.56 7.37 -8.2 12.29 -3.27 14.74 3.27 14.75 0 17.2 -4.91 12.29 -4.92 2.46 11.47 12.28 0 0 8.2 19.66 3.28 9.83 -11.48 4.92 9.84 22.11 -13.11 4.92 8.19 24.57 -1.64 -2.45 -6.55 12.28 -8.2 9.83 9.83 14.75 -8.19 0 -21.31 12.29 8.2 12.28 4.91 2.46 -14.75 22.12 6.56 14.74 4.92 7.37 -8.2 7.38 14.75 12.28 -8.19 -7.37 -1.64 4.92 -11.48 14.74 -3.27 -9.83 -4.92 7.37 -14.75 7.38 3.27 2.45 -8.19 17.21 8.19 22.11 4.92 14.75 -1.64 12.28 14.75 7.38 -11.47 22.11 -1.64 9.83 6.56 4.92 -8.2 12.29 -11.47 14.74 -1.64 12.29 9.83 24.57 0 0 11.48 7.37 -9.84 9.83 -1.64 4.92 14.76 12.29 1.64 14.74 0 22.12 -1.64 -2.46 -11.48 17.2 -4.91 19.66 1.63 12.29 -9.83 14.74 0 17.21 -1.64 19.65 1.64 14.75 -6.56 9.83 6.56 14.74 -1.64 0 -16.39 22.12 1.64 12.29 -6.56 7.37 -13.11 9.83 19.67 9.83 3.28 0 -16.39 4.91 -3.28 4.92 11.47 9.83 -6.55 17.2 6.55 0 0z"/>
   </clipPath>
   <clipPath id="id4">
    <path d="M2577.87 2448.81l-1292.62 154.07 0 140.97 -51.6 6.55 24.57 160.63 9.83 1.64 2.46 73.76 0 62.29 17.2 18.03 39.32 195.05 58.98 21.31 44.23 -49.17 81.1 36.06 -7.38 11.47 7.38 50.81 41.77 11.47 41.78 -45.89 86.01 32.78 -12.29 16.39 2.46 37.7 86.01 27.87 896.97 -106.54 -147.45 -586.8 -9.83 -116.38 -14.74 -54.09 4.91 -14.75 309.64 -73.76 0 -14.75 14.74 0 2.46 9.84 122.87 0 -24.57 -49.18 -334.21 42.62 0 0z"/>
   </clipPath>
   <clipPath id="id5">
    <path d="M3317.56 1625.98l27.03 0 22.12 6.56 17.2 21.31 2.45 34.42 184.31 -19.67 2.46 -55.73 9.83 -1.64 14.74 -14.75 14.75 -3.28 24.57 -1.64 19.66 4.92 12.29 13.11 9.83 40.98 157.28 -13.11 2.45 -11.48 167.11 -101.62 159.73 63.92 2.46 -124.57 14.75 -9.83 2.45 -19.67 7.38 -1.64 0 14.75 7.37 -1.64 0 -24.58 7.37 -1.64 0 -14.75 7.37 -3.28 4.92 4.91 2.45 18.03 12.29 13.12 0 16.39 12.29 0 7.37 60.64 0 8.2 -4.91 4.92 2.45 49.17 4.92 6.56 113.04 -8.2 -4.91 -36.06 2.45 -14.75 17.21 -16.39 24.57 -9.84 27.03 1.64 31.95 9.84 24.57 52.45 130.25 -13.11 0 -129.49 7.37 -1.64 0 -36.06 7.37 0 2.46 -36.06 7.37 1.64 0 -72.12 4.92 -4.92 7.37 4.92 7.37 1.64 2.46 6.55 2.46 101.63 9.83 1.64 4.91 9.83 0 54.09 9.83 6.56 -2.46 72.12 289.98 -18.03 4.92 -62.29 4.91 0 17.2 -14.75 19.66 -3.28 22.12 0 22.12 6.56 12.28 13.11 4.92 8.2 12.29 -172.11 -7.38 -16.39 0 -22.95 2.46 -8.19 14.75 -3.28 0 -96.71 -4.92 -13.11 0 -49.17 88.47 -8.2 2.46 -6.56 14.74 -1.63 0 -32.79 14.75 1.64 2.45 26.23 7.38 0 2.45 -22.95 17.21 3.28 0 19.67 469.37 -60.65 17.2 27.87 7.37 0 -2.46 -50.82 14.75 -4.91 4.91 -29.51 7.38 -6.55 7.37 8.19 0 22.95 4.91 -36.06 9.83 8.2 2.46 42.61 4.91 -21.31 12.29 1.64 4.92 50.81 405.47 -40.97 4.92 -31.15 12.29 0 0 -13.11 9.83 0 2.45 14.75 7.38 -16.39 14.74 0 2.46 11.48 7.37 -11.48 7.37 0 12.29 18.03 0 9.84 570.13 -62.29 4.91 -4.92 14.75 -3.27 0 -29.51 7.37 -11.47 12.29 -1.64 12.28 1.64 14.75 11.47 -2.46 13.12 7.37 -1.64 4.92 11.47 0 9.83 272.77 -32.78 0 -34.42 58.98 -3.28 4.92 -16.39 9.83 -1.64 -2.46 -63.92 9.83 -1.64 2.46 -19.67 17.2 0 0 13.11 19.66 0 2.46 36.06 4.91 3.28 9.83 24.59 0 9.83 462 -40.97 0 -11.48 -14.75 -3.28 -2.45 -18.03 -24.58 -22.94 -4.91 18.03 -22.12 1.64 -39.32 18.03 -17.2 -13.12 -39.32 -13.11 -22.12 -9.83 12.29 -8.2 -4.91 -13.11 24.57 -11.48 0 -24.58 -7.37 -29.51 22.12 -18.03 7.37 18.03 14.74 0 14.75 -14.75 9.83 21.31 7.37 -16.39 -14.75 -24.59 -2.45 -29.5 22.11 11.47 7.38 26.23 17.2 0 7.37 -11.48 7.37 -16.39 12.29 9.84 7.37 -13.12 0 -24.58 14.75 6.55 12.28 14.76 17.21 -29.51 19.66 18.03 -2.46 -18.03 -2.46 -16.39 24.58 0 24.57 16.39 14.74 -27.86 4.92 19.67 19.66 -3.28 17.2 -21.31 31.95 -3.28 -17.2 -18.03 0 -22.94 -7.38 -24.59 -12.28 -11.47 -14.75 27.86 -31.95 16.39 -4.91 -8.19 -22.12 -11.48 0 -22.95 -24.57 -9.83 2.46 -24.59 17.2 -3.27 24.57 -14.76 14.75 -13.11 -31.95 -14.75 -19.66 13.11 -4.91 -21.31 22.11 -22.94 9.83 -26.23 -14.74 -16.39 -22.12 27.86 -19.66 -9.83 12.29 -31.14 0 -22.95 9.83 -29.5 22.12 3.27 12.28 -27.86 4.92 -29.5 34.4 -1.64 -2.46 -13.12 0 -14.75 29.49 -16.39 24.58 -6.56 -4.92 -27.86 14.75 -29.5 17.2 -27.87 -4000.72 0 -24.57 37.7 19.66 14.75 -19.66 32.78 0 34.43 17.2 8.19 19.66 0 27.03 13.11 -2.45 16.39 19.66 36.06 -12.29 16.4 -7.37 19.66 22.11 1.64 14.75 36.06 7.37 -13.11 78.64 13.11 -31.95 14.76 24.58 16.39 -4.92 36.06 -29.49 9.83 -14.74 -4.92 -24.58 9.84 -31.94 -1.64 -14.75 26.23 12.29 4.91 14.74 19.67 19.66 -21.31 24.58 40.98 17.2 4.92 12.29 11.47 -24.58 6.56 -14.74 19.67 9.83 19.67 -34.41 1.64 -14.74 24.58 4.91 18.03 19.66 13.11 -12.28 36.06 17.2 11.48 7.37 -9.84 0 -16.39 41.78 21.31 12.28 -16.39 24.58 -18.03 12.29 13.11 17.2 0 17.2 14.75 29.49 -6.55 4.91 13.11 27.04 6.56 19.66 13.11 14.74 32.78 -46.69 9.84 31.95 9.83 -7.38 21.31 -27.03 3.28 -27.03 18.03 -19.66 -9.84 17.2 -9.83 2.46 -18.03 -19.66 -3.28 -24.57 13.11 -34.41 -3.28 -4.91 18.03 -31.95 8.2 19.66 19.67 12.29 6.56 22.11 -14.76 29.49 18.03 9.83 -9.83 29.49 4.92 34.41 -3.28 27.03 6.56 9.83 16.39 22.11 4.91 12.29 26.23 0 19.67 -31.95 -16.39 -14.74 1.64 -19.66 -21.31 -19.66 3.28 17.2 31.14 -7.37 22.95 -34.4 -34.42 -22.12 -22.95 -58.98 -14.75 29.49 45.89 44.23 11.47 -9.83 11.48 17.21 14.75 4.91 27.86 0 31.15 -31.95 -16.39 -17.2 -34.42 -24.57 -27.87 -9.83 26.23 17.2 8.19 9.83 27.87 -12.29 32.78 -24.57 3.28 0 -36.06 -34.41 26.22 -9.83 22.95 7.38 14.75 41.77 1.64 -2.45 27.86 22.11 27.87 -27.03 -4.92 -2.46 19.67 12.29 9.84 0 14.75 9.83 18.03 -29.49 9.83 7.37 -13.11 -9.83 -11.47 -24.57 11.47 -4.92 22.95 -12.28 -13.12 -4.92 -14.75 -27.03 6.56 -4.91 18.03 -17.21 3.28 -4.91 -18.03 -27.03 -13.12 -24.58 -6.55 7.37 39.34 -14.74 19.66 -31.95 11.48 -4.91 -18.03 -31.95 -39.34 -14.74 18.03 -31.95 16.39 2.46 13.11 14.74 22.95 31.95 14.75 -12.29 21.31 -44.23 -31.14 -36.86 -24.59 -24.58 -11.47 -46.69 32.78 -54.06 -1.64 4.91 21.31 -22.12 21.31 -2.45 22.95 -34.41 14.75 14.75 1.64 17.2 36.06 -36.86 4.91 0 14.76 17.2 13.11 -27.03 13.11 -7.37 26.23 -17.21 -4.92 -31.94 4.92 -24.58 0 -17.2 -19.67 -9.83 -13.12 -9.83 14.76 -29.49 -13.12 -7.37 9.84 -4.92 16.39 -19.65 9.83 -22.12 -14.75 -29.49 6.56 7.37 18.03 -7.37 24.58 12.29 4.92 -7.38 16.39 -22.11 1.64 -7.38 11.48 4.92 16.39 -24.57 19.67 12.28 3.27 -22.11 16.39 -19.66 8.2 -39.32 6.56 9.83 8.19 -27.04 16.39 -27.03 18.03 4.92 22.95 22.11 -1.64 19.66 4.92 0 14.75 -24.57 1.64 -2.46 18.03 7.37 9.83 4.92 14.76 19.66 8.19 -9.83 16.39 22.12 14.75 0 19.67 0 0z"/>
   </clipPath>
 </defs>
 <g id="Plan_x0020_1">
  <metadata id="CorelCorpID_0Corel-Layer"/>
  <g style="clip-path:url(#id0)">
   <image id="i_background" x="0.01" y="-0" width="8669.85" height="5782.73" xlink:href="chateau-de-millemont_c.jpg"/>
  </g>
  <g style="clip-path:url(#id1)">
   <image id="i_ptchateau" x="0.01" y="-0" width="8669.85" height="5782.73" xlink:href="chateau-de-millemont_c.jpg"/>
  </g>
  <g style="clip-path:url(#id2)">
   <image id="i_grchateau" x="0.01" y="-0" width="8669.85" height="5782.73" xlink:href="chateau-de-millemont_c.jpg"/>
  </g>
  <g style="clip-path:url(#id3)">
   <image id="i_orangerie" x="0.01" y="-0" width="8669.85" height="5782.73" xlink:href="chateau-de-millemont_c.jpg"/>
  </g>
  <g style="clip-path:url(#id4)">
   <image id="i_cochets" x="0.01" y="-0" width="8669.85" height="5782.73" xlink:href="chateau-de-millemont_c.jpg"/>
  </g>
  <g style="clip-path:url(#id5)">
   <image id="i_camping" x="0.01" y="-0" width="8669.85" height="5782.73" xlink:href="chateau-de-millemont_c.jpg"/>
  </g>
  <polygon id="t_camping" class="fil0 str0" points="3317.66,1625.84 3317.71,1606.71 3295.35,1591.19 3304.67,1575.66 3286.66,1566.97 3281.07,1552.06 3272.37,1542.13 3276.1,1524.74 3301.56,1523.5 3301.56,1507.97 3280.45,1502.38 3258.71,1504.24 3252.5,1481.89 3280.45,1463.88 3306.53,1447.11 3298.46,1438.42 3338.2,1432.82 3356.83,1424.75 3379.19,1407.37 3367.4,1404.88 3392.23,1385.62 3385.41,1368.23 3393.48,1357.06 3417.08,1355.19 3422.05,1339.67 3410.86,1333.46 3418.31,1309.23 3410.24,1291.22 3439.44,1284.4 3461.79,1299.3 3481.66,1289.36 3486.01,1273.21 3493.47,1264.52 3523.9,1277.56 3533.21,1262.66 3543.15,1275.08 3560.54,1294.33 3586.3,1295.41 3618.49,1289.73 3633.62,1295.41 3641.2,1268.9 3668.65,1255.65 3651.61,1242.4 3650.66,1227.25 3688.53,1222.52 3671.49,1187.5 3657.3,1185.6 3692.31,1170.46 3694.21,1147.74 3715.98,1125.97 3710.3,1104.2 3764.02,1105.76 3810.33,1073.7 3835.27,1084.38 3872.68,1109.32 3917.2,1141.39 3929.67,1120.01 3898.22,1104.12 3883.08,1082.35 3880.24,1068.15 3911.47,1053 3926.62,1035.02 3957.86,1073.82 3964.49,1091.81 3996.66,1080.45 4009.91,1060.57 4004.24,1021.77 4026.96,1027.44 4054.41,1040.69 4060.09,1059.63 4078.07,1055.84 4081.85,1037.85 4108.36,1030.28 4113.1,1045.43 4126.35,1059.63 4130.13,1035.97 4156.64,1023.66 4164.21,1035.97 4158.52,1049.22 4186.93,1039.75 4176.51,1020.82 4177.46,1005.68 4164.21,996.21 4168.94,977.28 4195.45,981.06 4173.78,954.71 4174.96,926.66 4134.05,924.32 4125.88,909.13 4136.39,886.92 4169.12,860.05 4171.44,896.28 4195.99,893.94 4207.68,860.05 4197.16,833.17 4179.63,823.83 4188.97,798.12 4214.68,826.16 4232.21,860.05 4262.6,877.58 4263.77,846.02 4259.1,817.98 4242.73,802.78 4250.92,792.27 4206.5,779.41 4178.46,735.01 4236.89,749.03 4259.1,771.23 4294.15,806.3 4301.16,782.93 4282.47,752.54 4303.5,749.03 4322.2,770.07 4338.56,768.9 4368.95,785.26 4370.11,765.39 4357.26,738.51 4335.05,733.85 4325.71,717.48 4297.66,711.64 4262.6,715.14 4234.55,709.3 4225.2,719.82 4193.65,702.29 4173.78,716.31 4159.76,710.46 4141.07,690.61 4173.78,682.42 4177.29,663.72 4211.18,667.23 4235.73,654.38 4256.76,657.88 4254.42,675.41 4235.73,684.76 4255.58,695.27 4283.63,677.75 4310.51,673.07 4318.69,652.04 4284.81,642.69 4331.55,633.34 4318.69,599.45 4298.82,586.6 4271.95,580.76 4264.94,567.9 4235.73,573.74 4220.53,558.55 4203,559.72 4190.15,545.69 4164.44,564.39 4152.75,579.58 4111.85,558.55 4110.68,576.08 4104.83,585.43 4087.26,574.43 4098,537.63 4078.82,523.84 4073.46,506.96 4088.56,481.48 4123.62,480.32 4113.11,460.45 4128.3,440.58 4152.83,434.74 4141.15,423.05 4122.45,417.21 4097.91,377.47 4079.21,398.51 4064.03,378.65 4051.17,373.97 4067.53,347.1 4100.25,349.42 4123.62,340.08 4138.81,343.58 4166.86,334.24 4172.7,298.01 4148.16,281.65 4180.88,266.46 4102.59,254.77 4093.24,266.46 4079.21,231.4 4057.01,229.06 4064.03,209.2 4075.71,192.83 4057.01,157.78 4060.51,140.25 4032.47,128.56 4012.6,127.4 3996.24,120.38 3996.24,85.32 4016.11,52.61 3995.08,37.42 4021.42,0 8019.88,0 8004.69,28.06 7988.33,57.27 7994.17,85.32 7968.46,92.33 7940.42,107.52 7940.42,122.72 7941.59,136.73 7907.69,137.91 7903.03,167.12 7890.17,195.17 7869.13,191.66 7859.79,222.05 7859.79,244.25 7845.76,274.63 7865.63,285.15 7889,257.1 7904.19,273.47 7892.5,299.18 7870.3,322.55 7874.98,344.75 7894.84,331.9 7927.56,345.92 7912.37,358.77 7889,373.97 7870.3,376.3 7869.13,400.85 7892.5,411.36 7893.67,433.56 7914.71,446.42 7920.55,454.6 7952.11,438.24 7967.3,409.03 7980.15,420.71 7985.99,445.25 7987.16,468.62 8004.69,487.32 7973.14,489.66 7955.61,511.86 7935.74,514.2 7929.9,495.5 7914.71,523.54 7890.17,507.19 7866.79,507.19 7867.97,523.54 7871.47,541.07 7850.97,523.62 7834.88,552.97 7822.57,537.83 7806.49,530.25 7807.43,555.81 7799.86,568.12 7787.55,559.6 7780.93,574.74 7773.35,587.05 7756.31,587.05 7747.8,560.55 7726.02,549.18 7727.92,578.53 7744.01,603.15 7736.44,619.23 7726.02,598.41 7711.83,613.56 7696.68,613.56 7688.17,595.57 7668.29,612.6 7674.91,641.95 7674.91,666.56 7650.3,678.87 7655.04,691.17 7642.73,700.64 7664.49,709.16 7703.31,722.41 7722.24,735.66 7760.1,717.67 7782.82,715.78 7788.5,697.79 7813.11,720.51 7815.09,739.77 7829.93,741.86 7828.3,753.42 7367.79,794.35 7367.79,784.99 7358.81,760 7351.78,758.05 7350.61,720.96 7331.48,720.96 7330.7,707.68 7313.13,708.07 7311.96,728.37 7301.42,729.16 7302.59,792.8 7293.22,794.35 7289.42,812.16 7230.62,815.05 7228.69,848.31 6955.9,881.08 6955.9,872.41 6952.04,861.32 6944.81,861.81 6946.26,849.28 6931.79,837.71 6919.26,836.27 6906.74,838.19 6901.43,848.31 6900.47,878.19 6886.97,881.08 6881.67,887.35 6311.82,948.7 6311.52,939.64 6298.51,921.32 6291.76,921.8 6284.05,932.89 6280.68,921.8 6267.66,921.8 6259.47,936.75 6255.61,922.28 6246.46,923.25 6246.94,935.78 6233.93,935.78 6230.07,967.11 5823.11,1008.64 5818.55,957.72 5806.44,954.99 5801.76,977.24 5799.41,934.3 5788.88,925.31 5784.96,961.71 5784.21,939.67 5777.61,931.59 5770.99,937.46 5765.12,967.59 5749.69,972 5752.63,1022.68 5745.28,1022.68 5727.65,994.76 5259.71,1055 5258.98,1035.16 5241.35,1032.96 5239.88,1055 5232.54,1055 5229.6,1029.29 5214.9,1027.82 5214.9,1060.87 5200.21,1062.35 5196.54,1068.22 5109.86,1077.04 5108.38,1125.52 5115,1139.48 5114.45,1236.35 5099.9,1238.88 5095.7,1246.95 5096.49,1270.76 5104.69,1285.99 5092.32,1459.59 5087.74,1450.67 5074.25,1436.7 5053.53,1430.92 5030.87,1430.92 5011.11,1434.29 4993.27,1448.75 4987.97,1448.27 4984.12,1511.88 4694.63,1529.75 4695.02,1456.75 4687.21,1451.29 4687.21,1397.02 4680.57,1386.87 4671.6,1384.92 4669.65,1283.41 4666.14,1277.56 4659.11,1275.6 4652.85,1269.75 4648.18,1274.83 4648.18,1346.66 4639.58,1345.88 4638.42,1381.01 4630.22,1381.4 4628.65,1417.31 4621.24,1418.88 4622.01,1548.49 4491.23,1561.38 4468.2,1510.24 4436.58,1500.47 4409.25,1497.74 4384.66,1508.67 4367.48,1524.28 4365.14,1538.34 4368.65,1575.43 4255.82,1584.02 4251.15,1576.6 4249.58,1527.41 4253.88,1522.73 4252.7,1513.75 4246.85,1454.41 4234.74,1454.02 4233.58,1437.62 4220.69,1424.73 4219.52,1406.39 4214.44,1402.09 4206.25,1404.83 4207.02,1420.05 4199.6,1420.83 4198.83,1445.42 4191.41,1446.6 4191.41,1432.15 4184.39,1434.88 4183.6,1454.41 4166.82,1463.38 4165.64,1588.7 4004.8,1524.67 3839.28,1626.57 3835.37,1637.5 3678,1651.22 3669.02,1609.84 3656.92,1596.95 3636.62,1591.88 3613.59,1592.66 3596.8,1596.55 3582.75,1611.78 3574.15,1612.57 3571.81,1668.79 3386.76,1688.3 3384.81,1653.56 3366.07,1632.08 3343.43,1626.23 "/>
  <polygon id="t_orangerie" class="fil0 str0" points="5521.92,3836.85 5505.54,3831.23 5494.46,3837.01 5491.09,3825.45 5484.34,3828.34 5483.86,3845.2 5474.22,3841.83 5464.58,3822.07 5457.35,3835.57 5446.26,3842.31 5424.1,3840.87 5424.58,3856.78 5408.19,3858.71 5399.51,3852.44 5384.57,3858.71 5363.85,3856.78 5347.46,3858.71 5332.52,3857.74 5321.44,3868.35 5301.2,3867.38 5284.32,3871.24 5286.25,3882.32 5263.12,3884.25 5249.62,3884.73 5236.12,3883.28 5231.79,3867.86 5222.15,3869.31 5214.92,3879.43 5213.96,3867.86 5189.86,3868.35 5177.32,3859.19 5162.87,3860.15 5150.34,3870.75 5146.48,3880.39 5134.92,3873.65 5112.74,3874.61 5106.96,3885.69 5095.39,3870.75 5078.53,3872.68 5056.35,3868.83 5039.97,3859.67 5037.07,3867.86 5029.36,3864.97 5024.06,3879.43 5032.26,3884.25 5017.31,3888.58 5014.42,3899.19 5020.68,3901.6 5008.63,3909.8 5001.41,3893.88 4994.18,3902.09 4978.28,3897.74 4956.1,3891.96 4953.69,3905.46 4942.12,3901.11 4930.56,3892.44 4930.08,3914.62 4913.69,3921.84 4905.01,3913.17 4893.93,3920.4 4894.89,3927.14 4871.76,3929.07 4864.53,3920.4 4844.28,3934.37 4837.54,3923.77 4828.86,3935.34 4810.07,3932.93 4809.1,3924.25 4797.53,3923.77 4795.6,3912.69 4781.63,3917.51 4766.21,3922.81 4751.27,3922.81 4734.87,3918.95 4722.35,3922.81 4717.05,3930.52 4708.37,3937.75 4694.39,3939.67 4692.95,3952.2 4681.38,3946.42 4669.81,3949.79 4661.62,3941.6 4652.94,3941.12 4646.2,3934.85 4638.49,3941.12 4629.32,3948.83 4627.4,3958.48 4625.95,3970.52 4614.38,3970.04 4604.26,3962.33 4602.34,3954.13 4595.59,3954.13 4591.25,3945.46 4582.09,3945.46 4578.23,3954.13 4567.63,3953.17 4558.48,3949.79 4550.28,3954.61 4542.09,3956.06 4539.2,3964.74 4527.63,3963.78 4503.53,3977.27 4488.11,3964.74 4476.06,3957.51 4459.67,3960.89 4462.56,3969.08 4458.71,3977.27 4451,3968.11 4436.06,3968.6 4426.9,3964.74 4420.16,3968.6 4400.87,3967.63 4391.23,3969.08 4391.23,3977.75 4376.29,3979.68 4365.21,3975.82 4363.27,3984.5 4353.15,3980.16 4340.63,3979.2 4340.14,3989.8 4326.17,3997.03 4324.24,4003.77 4315.09,4008.11 4303.99,4017.76 4297.25,4025.47 4286.42,4032.42 4273.93,4015.76 4284.71,4009.22 4315.08,3956.68 4330.01,3898.36 4334.83,3845.35 4335.8,3784.62 4392.13,3776.59 4384.39,3705.78 4437.04,3689.86 4487.01,3694.94 4503.01,3754.67 4527.21,3752.71 4698.6,3643.8 4876.62,3697.67 4941.04,3687.52 4939.87,3620.37 4987.49,3600.46 5038.64,3602.42 5056.98,3661.37 5470.42,3604.36 5472.76,3545.02 5517.26,3523.55 5570.75,3523.94 5596.9,3585.62 5952.55,3536.44 5966.01,3540.14 5960.54,3547.55 5962.11,3557.7 5970.3,3558.09 5973.04,3564.35 5990.99,3565.12 5987.08,3578.78 5961.32,3585.81 5960.93,3596.35 5987.08,3596.35 5983.96,3609.24 5999.19,3617.83 6020.27,3613.53 6032.76,3621.34 6027.3,3633.06 6027.69,3648.28 6039.79,3660.38 6044.09,3669.36 6068.29,3668.57 6053.85,3688.1 6053.45,3703.71 6070.63,3704.1 6085.08,3708.79 6077.27,3716.6 6056.97,3718.55 6074.93,3729.48 6080.39,3737.67 6075.32,3750.96 6077.84,3761.51 6088.77,3767.75 6089.55,3782.2 6073.15,3792.74 6060.27,3787.67 6047,3793.13 6039.19,3787.28 6023.19,3792.35 6013.82,3782.59 5997.81,3791.17 5989.22,3796.25 5979.46,3791.17 5966.57,3790.4 5966.18,3779.47 5951.75,3781.42 5943.15,3792.35 5934.57,3780.64 5925.98,3792.35 5916.61,3777.51 5907.23,3791.17 5897.87,3781.81 5890.84,3806.4 5881.08,3813.04 5865.08,3804.85 5858.44,3810.7 5856.88,3823.97 5842.82,3819.67 5842.82,3805.62 5827.6,3800.55 5825.64,3808.74 5818.62,3805.23 5813.16,3797.82 5803.78,3797.04 5800.26,3783.37 5790.51,3785.32 5785.44,3802.5 5773.33,3800.55 5768.65,3812.26 5765.14,3799.38 5755.76,3802.11 5754.21,3808.74 5738.58,3806.4 5724.53,3809.92 5718.68,3816.94 5708.92,3807.19 5699.16,3808.36 5693.3,3816.55 5680.03,3799.77 5671.05,3799.38 5665.58,3816.94 5671.05,3831.78 5677.69,3845.84 5674.96,3858.33 5665.58,3862.62 5666.36,3871.21 5666.75,3878.63 5653.87,3884.87 5644.5,3872.77 5639.82,3855.2 5625.37,3848.18 5622.25,3839.97 5605.46,3843.88 5590.63,3845.05 5584.38,3833.73 5576.57,3841.15 5553.93,3843.1 5546.12,3834.12 5526.99,3830.61 "/>
  <polygon id="t_ptchateau" class="fil0 str0" points="3608.64,2290.01 3517,2299.53 3514.62,2310.24 3458.69,2315 3452.5,2309.22 3356.41,2322.15 3355.81,2333.45 3340.94,2341.78 3325.47,2337.62 3318.93,2328.69 3201.11,2342.38 3195.15,2353.68 3177.3,2356.06 3164.21,2354.27 3159.45,2345.35 3045.81,2359.04 3033.44,2361.11 3047.42,2383.28 3055.61,2404.01 3056.57,2421.35 3038.74,2413.16 3011.27,2413.16 3007.89,2429.06 2991.51,2433.88 2981.39,2439.18 2977.05,2455.35 2935.6,2455.35 2911.18,2406.34 2577.97,2449.01 2573.21,2141.58 2567.26,2139.2 2545.24,1959.5 2537.51,1958.91 2531.56,1897.03 2542.87,1894.65 2537.95,1815 2551.64,1801.91 2654.57,1792.98 2650.42,1733.48 2655.58,1726.02 2663.17,1726.02 2685.93,1714 2712.18,1707.68 2737.48,1709.26 2759.3,1718.75 2766.57,1727.61 2768.47,1752.89 2774.79,1754.79 2779.22,1744.99 2785.23,1761.12 2798.51,1758.59 2800.41,1622.3 2790.92,1584.04 2790.29,1562.22 2835.19,1559.06 2839.94,1587.83 2839.94,1596.68 2846.26,1597.32 2847.53,1623.88 2862.7,1626.41 2863.34,1659.3 2870.29,1662.46 2871.56,1671.95 2867.13,1680.8 2870.29,1739.93 2911.4,1740.88 2910.45,1686.5 2923.73,1684.6 2933.53,1674.79 2951.87,1667.83 2973.07,1664.36 2995.83,1665.94 3012.59,1671.95 3025.56,1683.01 3034.73,1701.35 3039.15,1731.71 3097.34,1729.81 3097.65,1644.12 3097.02,1601.11 3106.83,1599.85 3108.4,1575.18 3126.75,1577.08 3126.43,1592.26 3137.3,1592.31 3137.43,1557.32 3157.44,1556.64 3158.26,1593.8 3166.02,1593.26 3166.42,1563.31 3179.9,1564.54 3180.17,1593.67 3189.56,1593.67 3192.96,1634.23 3195.08,1712.51 3270.82,1702.75 3267.3,1651.22 3273.94,1650.04 3291.51,1637.95 3317.66,1625.84 3343.43,1626.23 3366.07,1632.08 3384.81,1653.56 3386.76,1688.3 3571.81,1668.79 3574.15,1612.57 3582.75,1611.78 3596.8,1596.56 3613.59,1592.66 3636.62,1591.88 3656.92,1596.95 3669.02,1609.84 3678,1651.22 3835.37,1637.5 3839.28,1626.57 4004.8,1524.67 4165.64,1588.7 4166.82,1463.38 4183.6,1454.41 4184.39,1434.88 4191.41,1432.15 4191.41,1446.6 4198.83,1445.42 4199.61,1420.83 4207.02,1420.05 4206.25,1404.83 4214.44,1402.09 4219.52,1406.39 4220.69,1424.73 4233.58,1437.62 4234.74,1454.02 4246.85,1454.41 4252.7,1513.75 4253.88,1522.73 4249.58,1527.41 4251.15,1576.6 4255.82,1584.02 4368.65,1575.43 4365.14,1538.34 4367.48,1524.29 4384.66,1508.67 4409.25,1497.74 4436.58,1500.47 4468.2,1510.24 4491.23,1561.38 4622.01,1548.5 4621.24,1418.88 4628.66,1417.32 4630.22,1381.4 4638.42,1381.01 4639.58,1345.88 4648.18,1346.66 4648.18,1274.83 4652.85,1269.75 4659.11,1275.6 4666.14,1277.56 4669.65,1283.41 4671.6,1384.92 4680.57,1386.87 4687.22,1397.02 4687.22,1451.29 4695.02,1456.75 4694.63,1529.75 4984.12,1511.88 4987.97,1448.27 4993.28,1448.75 5011.11,1434.29 5030.87,1430.92 5053.53,1430.92 5074.25,1436.7 5087.74,1450.67 5096.9,1468.51 5103.17,1491.64 5184.14,1484.42 5237.38,1809.09 5231.02,1825.05 5229.46,1832.47 5228.67,1935.53 5216.58,1937.88 5214.24,1946.07 5205.25,1945.68 5191.59,1933.58 5183,1941 5190.41,1953.88 5177.53,1957.39 5168.56,1965.6 5147.87,1971.45 5146.69,1979.26 5124.44,1975.74 5123.66,1986.29 5113.9,1985.11 5111.95,1996.83 5118.58,2012.83 5118.97,2022.98 5094.38,2022.98 5094.38,2031.96 5102.97,2040.16 5086.57,2051.87 5073.3,2036.64 5068.62,2049.91 5081.89,2063.19 5078.77,2081.15 5061.1,2086.64 5044.43,2091.99 5040.87,2111.63 5023.61,2119.36 5001,2121.14 4983.75,2099.73 4885.56,2115.79 4877.23,2128.29 4869.5,2144.35 4857,2143.16 4842.12,2137.81 4829.63,2122.93 4741.57,2139.59 4739.19,2152.69 4733.83,2163.99 4711.22,2165.17 4692.18,2157.44 4676.71,2150.31 4598.76,2161.01 4599.36,2173.51 4588.64,2181.84 4569.61,2181.25 4545.21,2168.16 4456.55,2180.05 4458.33,2192.55 4442.27,2196.72 4430.38,2205.64 4411.92,2205.64 4400.62,2188.98 4310.77,2199.1 4309.18,2215.54 4260.02,2217.47 4258.09,2221.81 4245.56,2222.77 4240.26,2235.79 4226.77,2240.61 4200.74,2238.68 4194.96,2220.84 4018.75,2242.29 4011.49,2247.38 4007.7,2255.28 4008.33,2262.87 4002,2263.81 3999.79,2272.66 3982.09,2273.62 3974.81,2258.75 3894.8,2263.5 3891.01,2254.96 3793.1,2265.62 3789.52,2275.73 3777.02,2279.89 3758.58,2270.38 3655.64,2279.3 3651.47,2292.39 3641.96,2305.48 3618.15,2305.48 "/>
  <polygon id="t_cochets" class="fil0 str0" points="2577.97,2449.01 1284.49,2603.63 1285.66,2743.86 1233.07,2750.87 1258.07,2910.3 1269.24,2912.16 1271.11,2986.07 1271.73,3048.79 1288.5,3066.81 1326.39,3262.43 1385.38,3282.93 1431.34,3234.49 1510.84,3269.89 1504,3281.68 1510.84,3331.99 1554.31,3344.41 1594.05,3298.45 1681,3331.37 1667.96,3347.52 1670.44,3384.15 1756.77,3413.35 2655.08,3306.17 2506.34,2719.63 2495.6,2602.32 2481.81,2548.64 2487.94,2534.85 2796.16,2460.48 2797.69,2445.9 2810.73,2445.9 2813.05,2454.76 2935.6,2455.35 2911.18,2406.34 "/>
  <polygon id="t_grchateau" class="fil0 str0" points="5228.67,1935.53 5229.46,1832.47 5231.02,1825.05 5237.38,1809.09 5184.14,1484.42 5103.17,1491.64 5096.9,1468.51 5092.32,1459.59 5104.69,1285.99 5096.49,1270.76 5095.7,1246.95 5099.9,1238.89 5114.45,1236.36 5115,1139.48 5108.38,1125.52 5109.86,1077.04 5196.54,1068.22 5200.21,1062.35 5214.9,1060.88 5214.9,1027.82 5229.6,1029.29 5232.54,1055 5239.88,1055 5241.35,1032.96 5258.98,1035.17 5259.71,1055 5727.65,994.76 5745.28,1022.68 5752.63,1022.68 5749.69,972 5765.12,967.59 5770.99,937.47 5777.61,931.59 5784.22,939.67 5784.96,961.71 5788.88,925.31 5799.42,934.3 5801.76,977.24 5806.45,954.99 5818.55,957.72 5823.11,1008.65 6230.07,967.11 6233.93,935.78 6246.94,935.78 6246.46,923.25 6255.61,922.28 6259.47,936.75 6267.66,921.8 6280.68,921.8 6284.05,932.89 6291.76,921.8 6298.51,921.32 6311.52,939.64 6311.82,948.7 6881.67,887.35 6886.98,881.09 6900.47,878.19 6901.43,848.31 6906.74,838.19 6919.26,836.27 6931.79,837.71 6946.26,849.28 6944.81,861.81 6952.04,861.32 6955.9,872.41 6955.9,881.09 7228.69,848.31 7230.62,815.05 7289.42,812.16 7293.22,794.35 7302.59,792.8 7301.42,729.16 7311.96,728.37 7313.13,708.07 7330.7,707.68 7331.48,720.97 7350.61,720.97 7351.78,758.05 7358.81,760 7367.79,784.99 7367.79,794.35 7828.3,753.42 7831.82,728.43 7845.48,728.43 7850.94,736.64 7852.9,719.07 7894.67,717.11 7930.19,769.03 7929.03,781.53 7923.56,782.7 7920.83,876.39 8054.84,1113.34 8073.87,1115.72 8072.09,1141.3 8064.95,1152.01 8048.29,1155.58 8042.34,1235.91 8064.95,1267.45 8063.76,1281.72 8041.15,1303.15 8040.09,1315.69 8028.77,1317.24 8008.08,1555.77 7994.41,1558.51 7992.86,1582.32 7978.02,1581.94 7964.75,1562.8 7952.64,1563.19 7948.73,1572.17 7926.1,1554.99 7917.89,1556.17 7910.09,1566.71 7900.33,1565.92 7899.55,1558.9 7888.23,1558.51 7878.08,1547.96 7871.05,1547.96 7863.63,1558.11 7851.14,1558.11 7850.36,1566.71 7833.18,1574.13 7823.03,1574.13 7808.98,1568.27 7790.63,1568.27 7785.95,1558.51 7780.87,1559.29 7776.57,1570.22 7750.03,1575.68 7747.69,1558.51 7737.92,1561.25 7737.92,1576.86 7725.04,1572.56 7699.28,1571 7663.36,1574.52 7661.41,1593.64 7655.16,1593.64 7645.4,1583.1 7640.33,1582.32 7636.42,1590.91 7589.96,1589.74 7587.62,1622.14 7579.81,1625.27 7572.39,1620.97 7557.18,1619.02 7546.24,1624.48 7539.22,1628.78 7538.82,1616.68 7529.85,1616.29 7524.77,1647.52 7508.37,1648.69 7501.61,1638.7 7493.42,1637.13 7491.46,1645.73 7477.4,1650.02 7472.73,1657.44 7460.62,1659.78 7449.69,1676.96 7442.28,1678.91 7443.05,1693.35 7443.05,1704.28 7429.78,1709.36 7429.78,1732 7441.89,1740.21 7441.1,1748.4 7425.87,1748.79 7421.19,1766.75 7435.64,1775.72 7450.47,1778.85 7446.17,1790.95 7426.26,1791.34 7421.97,1804.23 7429.78,1808.91 7416.9,1814.37 7417.68,1825.31 7429.91,1831.41 7429.52,1843.12 7434.98,1854.83 7444.75,1854.44 7444.35,1873.17 7436.15,1882.16 6355.36,2014.46 6324.52,1958.55 6297.04,1961.92 6284.03,1946.5 6277.77,1925.3 6279.22,1906.98 6265.72,1902.16 6256.07,1911.31 6250.77,1890.11 6238.25,1889.15 6228.61,1861.68 6218.49,1868.43 6211.26,1844.32 6200.65,1861.68 6192.46,1836.61 6164.51,1834.68 6152.45,1820.23 6136.55,1820.23 6129.8,1801.42 6115.35,1803.35 6094.13,1799.01 6086.9,1809.14 6074.38,1813 6060.4,1811.55 6039.19,1811.55 6039.67,1792.27 6022.32,1791.79 6011.24,1806.25 6003.53,1790.82 5994.37,1793.71 5992.93,1802.39 5978.46,1800.94 5969.79,1784.56 5951.48,1797.57 5950.51,1818.3 5942.32,1810.11 5912.43,1814.44 5905.2,1821.67 5896.53,1821.19 5894.12,1812.04 5879.66,1811.07 5872.91,1819.26 5864.23,1827.94 5846.89,1827.94 5842.55,1816.85 5824.72,1818.3 5822.31,1834.68 5814.59,1824.08 5801.1,1836.61 5786.64,1834.68 5785.68,1828.42 5768.33,1825.05 5760.61,1818.78 5746.15,1823.12 5730.73,1818.78 5723.51,1837.58 5714.35,1837.09 5705.67,1825.05 5699.4,1826.97 5687.84,1842.39 5681.57,1827.46 5672.42,1827.46 5668.56,1834.68 5653.61,1836.13 5637.71,1846.73 5624.22,1844.32 5618.92,1855.4 5600.11,1853 5596.26,1860.72 5585.66,1863.61 5570.24,1883.85 5560.12,1869.39 5550,1874.21 5549.03,1894.93 5538.74,1882.79 5535.37,1898.21 5528.62,1901.1 5523.32,1881.35 5508.86,1883.76 5504.52,1899.66 5493.44,1907.37 5483.32,1911.7 5470.31,1917.49 5464.03,1926.65 5458.73,1914.11 5433.67,1920.39 5436.08,1935.81 5418.25,1935.81 5413.43,1924.73 5399.93,1925.69 5397.04,1907.37 5380.17,1906.89 5366.2,1917.97 5357.03,1906.4 5345.95,1926.17 5323.3,1926.65 5319.45,1941.11 5310.77,1942.07 5286.19,1945.45 5280.4,1932.92 5266.91,1943.04 5251.97,1934.36 5246.66,1944 "/>
 </g>
</svg>
